<svg width="122" height="152" viewBox="0 0 122 152" fill="none" xmlns="http://www.w3.org/2000/svg">
<path d="M2.23881 15.5509L1.72019 17.6963C0.795709 28.3602 1.33939 33.8616 1.5257 44.0261C1.53861 60.344 0.336448 95.3601 1.5257 104.552C2.9206 115.333 14.3187 120.912 18.6404 121H63.5664H103.89L107.909 119.895C111.143 118.456 112.954 117.22 116.207 114.174C118.334 110.975 119.324 108.658 120.875 103.967V59.0438V27.318C121.212 25.635 120.748 21.7863 120.875 21.272C121.091 20.3951 120.291 17.3712 120.097 16.006C119.941 14.9138 118.303 11.8236 117.504 10.415C112.36 2.38012 105.895 0.3169 87.6825 1.18333H56.0463C56.0463 1.18333 38.309 0.858071 36.6626 1.18333C35.0163 1.50859 26.279 0.791097 17.668 1.5734C12.943 2.00266 8.33267 6.31926 8.33267 6.31926C8.33267 6.31926 4.23264 10.4577 2.23881 15.5509Z" fill="#0148FF" stroke="#CABCBC"/>
<path d="M78.4567 59.7293C81.3367 60.6413 83.5927 62.1773 85.2247 64.3373C86.8567 66.4493 87.6727 69.0653 87.6727 72.1853C87.6727 76.6013 85.9447 80.0093 82.4887 82.4093C79.0807 84.7613 74.0887 85.9373 67.5127 85.9373H41.4487V35.5373H66.0727C72.2167 35.5373 76.9207 36.7133 80.1847 39.0653C83.4967 41.4173 85.1527 44.6093 85.1527 48.6413C85.1527 51.0893 84.5527 53.2733 83.3527 55.1933C82.2007 57.1133 80.5687 58.6253 78.4567 59.7293ZM53.0407 44.3213V56.2013H64.6327C67.5127 56.2013 69.6967 55.6973 71.1847 54.6893C72.6727 53.6813 73.4167 52.1933 73.4167 50.2253C73.4167 48.2573 72.6727 46.7933 71.1847 45.8333C69.6967 44.8253 67.5127 44.3213 64.6327 44.3213H53.0407ZM66.6487 77.1533C69.7207 77.1533 72.0247 76.6493 73.5607 75.6413C75.1447 74.6333 75.9367 73.0733 75.9367 70.9613C75.9367 66.7853 72.8407 64.6973 66.6487 64.6973H53.0407V77.1533H66.6487Z" fill="white"/>
<rect x="23" y="131.658" width="80" height="20.3416" rx="2" fill="#0148FF"/>
<path d="M39.164 143.228C39.644 143.38 40.02 143.636 40.292 143.996C40.564 144.348 40.7 144.784 40.7 145.304C40.7 146.04 40.412 146.608 39.836 147.008C39.268 147.4 38.436 147.596 37.34 147.596H32.996V139.196H37.1C38.124 139.196 38.908 139.392 39.452 139.784C40.004 140.176 40.28 140.708 40.28 141.38C40.28 141.788 40.18 142.152 39.98 142.472C39.788 142.792 39.516 143.044 39.164 143.228ZM34.928 140.66V142.64H36.86C37.34 142.64 37.704 142.556 37.952 142.388C38.2 142.22 38.324 141.972 38.324 141.644C38.324 141.316 38.2 141.072 37.952 140.912C37.704 140.744 37.34 140.66 36.86 140.66H34.928ZM37.196 146.132C37.708 146.132 38.092 146.048 38.348 145.88C38.612 145.712 38.744 145.452 38.744 145.1C38.744 144.404 38.228 144.056 37.196 144.056H34.928V146.132H37.196ZM45.1118 147.692C44.4318 147.692 43.8198 147.552 43.2758 147.272C42.7398 146.984 42.3198 146.588 42.0158 146.084C41.7118 145.58 41.5598 145.008 41.5598 144.368C41.5598 143.728 41.7118 143.156 42.0158 142.652C42.3198 142.148 42.7398 141.756 43.2758 141.476C43.8198 141.188 44.4318 141.044 45.1118 141.044C45.7918 141.044 46.3998 141.188 46.9358 141.476C47.4718 141.756 47.8918 142.148 48.1958 142.652C48.4998 143.156 48.6518 143.728 48.6518 144.368C48.6518 145.008 48.4998 145.58 48.1958 146.084C47.8918 146.588 47.4718 146.984 46.9358 147.272C46.3998 147.552 45.7918 147.692 45.1118 147.692ZM45.1118 146.156C45.5918 146.156 45.9838 145.996 46.2878 145.676C46.5998 145.348 46.7558 144.912 46.7558 144.368C46.7558 143.824 46.5998 143.392 46.2878 143.072C45.9838 142.744 45.5918 142.58 45.1118 142.58C44.6318 142.58 44.2358 142.744 43.9238 143.072C43.6118 143.392 43.4558 143.824 43.4558 144.368C43.4558 144.912 43.6118 145.348 43.9238 145.676C44.2358 145.996 44.6318 146.156 45.1118 146.156ZM52.9751 147.692C52.2951 147.692 51.6831 147.552 51.1391 147.272C50.6031 146.984 50.1831 146.588 49.8791 146.084C49.5751 145.58 49.4231 145.008 49.4231 144.368C49.4231 143.728 49.5751 143.156 49.8791 142.652C50.1831 142.148 50.6031 141.756 51.1391 141.476C51.6831 141.188 52.2951 141.044 52.9751 141.044C53.6551 141.044 54.2631 141.188 54.7991 141.476C55.3351 141.756 55.7551 142.148 56.0591 142.652C56.3631 143.156 56.5151 143.728 56.5151 144.368C56.5151 145.008 56.3631 145.58 56.0591 146.084C55.7551 146.588 55.3351 146.984 54.7991 147.272C54.2631 147.552 53.6551 147.692 52.9751 147.692ZM52.9751 146.156C53.4551 146.156 53.8471 145.996 54.1511 145.676C54.4631 145.348 54.6191 144.912 54.6191 144.368C54.6191 143.824 54.4631 143.392 54.1511 143.072C53.8471 142.744 53.4551 142.58 52.9751 142.58C52.4951 142.58 52.0991 142.744 51.7871 143.072C51.4751 143.392 51.3191 143.824 51.3191 144.368C51.3191 144.912 51.4751 145.348 51.7871 145.676C52.0991 145.996 52.4951 146.156 52.9751 146.156ZM61.6543 147.284C61.4703 147.42 61.2423 147.524 60.9703 147.596C60.7063 147.66 60.4303 147.692 60.1423 147.692C59.3663 147.692 58.7703 147.496 58.3543 147.104C57.9383 146.712 57.7303 146.136 57.7303 145.376V139.712H59.6023V141.284H61.1983V142.724H59.6023V145.352C59.6023 145.624 59.6703 145.836 59.8063 145.988C59.9423 146.132 60.1383 146.204 60.3943 146.204C60.6823 146.204 60.9383 146.124 61.1623 145.964L61.6543 147.284ZM64.8837 147.692C64.3477 147.692 63.8237 147.628 63.3117 147.5C62.7997 147.364 62.3917 147.196 62.0877 146.996L62.7117 145.652C62.9997 145.836 63.3477 145.988 63.7557 146.108C64.1637 146.22 64.5637 146.276 64.9557 146.276C65.7477 146.276 66.1437 146.08 66.1437 145.688C66.1437 145.504 66.0357 145.372 65.8197 145.292C65.6037 145.212 65.2717 145.144 64.8237 145.088C64.2957 145.008 63.8597 144.916 63.5157 144.812C63.1717 144.708 62.8717 144.524 62.6157 144.26C62.3677 143.996 62.2437 143.62 62.2437 143.132C62.2437 142.724 62.3597 142.364 62.5917 142.052C62.8317 141.732 63.1757 141.484 63.6237 141.308C64.0797 141.132 64.6157 141.044 65.2317 141.044C65.6877 141.044 66.1397 141.096 66.5877 141.2C67.0437 141.296 67.4197 141.432 67.7157 141.608L67.0917 142.94C66.5237 142.62 65.9037 142.46 65.2317 142.46C64.8317 142.46 64.5317 142.516 64.3317 142.628C64.1317 142.74 64.0317 142.884 64.0317 143.06C64.0317 143.26 64.1397 143.4 64.3557 143.48C64.5717 143.56 64.9157 143.636 65.3877 143.708C65.9157 143.796 66.3477 143.892 66.6837 143.996C67.0197 144.092 67.3117 144.272 67.5597 144.536C67.8077 144.8 67.9317 145.168 67.9317 145.64C67.9317 146.04 67.8117 146.396 67.5717 146.708C67.3317 147.02 66.9797 147.264 66.5157 147.44C66.0597 147.608 65.5157 147.692 64.8837 147.692ZM72.9747 147.284C72.7907 147.42 72.5627 147.524 72.2907 147.596C72.0267 147.66 71.7507 147.692 71.4627 147.692C70.6867 147.692 70.0907 147.496 69.6747 147.104C69.2587 146.712 69.0507 146.136 69.0507 145.376V139.712H70.9227V141.284H72.5187V142.724H70.9227V145.352C70.9227 145.624 70.9907 145.836 71.1267 145.988C71.2627 146.132 71.4587 146.204 71.7147 146.204C72.0027 146.204 72.2587 146.124 72.4827 145.964L72.9747 147.284ZM75.82 141.992C76.044 141.68 76.344 141.444 76.72 141.284C77.104 141.124 77.544 141.044 78.04 141.044V142.772C77.832 142.756 77.692 142.748 77.62 142.748C77.084 142.748 76.664 142.9 76.36 143.204C76.056 143.5 75.904 143.948 75.904 144.548V147.596H74.032V141.14H75.82V141.992ZM85.6465 141.14V147.596H83.8585V146.852C83.3945 147.412 82.7225 147.692 81.8425 147.692C81.2345 147.692 80.6825 147.556 80.1865 147.284C79.6985 147.012 79.3145 146.624 79.0345 146.12C78.7545 145.616 78.6145 145.032 78.6145 144.368C78.6145 143.704 78.7545 143.12 79.0345 142.616C79.3145 142.112 79.6985 141.724 80.1865 141.452C80.6825 141.18 81.2345 141.044 81.8425 141.044C82.6665 141.044 83.3105 141.304 83.7745 141.824V141.14H85.6465ZM82.1665 146.156C82.6385 146.156 83.0305 145.996 83.3425 145.676C83.6545 145.348 83.8105 144.912 83.8105 144.368C83.8105 143.824 83.6545 143.392 83.3425 143.072C83.0305 142.744 82.6385 142.58 82.1665 142.58C81.6865 142.58 81.2905 142.744 80.9785 143.072C80.6665 143.392 80.5105 143.824 80.5105 144.368C80.5105 144.912 80.6665 145.348 80.9785 145.676C81.2905 145.996 81.6865 146.156 82.1665 146.156ZM91.1956 141.044C91.7956 141.044 92.3396 141.184 92.8276 141.464C93.3236 141.736 93.7116 142.124 93.9916 142.628C94.2716 143.124 94.4116 143.704 94.4116 144.368C94.4116 145.032 94.2716 145.616 93.9916 146.12C93.7116 146.616 93.3236 147.004 92.8276 147.284C92.3396 147.556 91.7956 147.692 91.1956 147.692C90.3716 147.692 89.7236 147.432 89.2516 146.912V149.924H87.3796V141.14H89.1676V141.884C89.6316 141.324 90.3076 141.044 91.1956 141.044ZM90.8716 146.156C91.3516 146.156 91.7436 145.996 92.0476 145.676C92.3596 145.348 92.5156 144.912 92.5156 144.368C92.5156 143.824 92.3596 143.392 92.0476 143.072C91.7436 142.744 91.3516 142.58 90.8716 142.58C90.3916 142.58 89.9956 142.744 89.6836 143.072C89.3796 143.392 89.2276 143.824 89.2276 144.368C89.2276 144.912 89.3796 145.348 89.6836 145.676C89.9956 145.996 90.3916 146.156 90.8716 146.156Z" fill="white"/>
</svg>
