<svg width="122" height="154" viewBox="0 0 122 154" fill="none" xmlns="http://www.w3.org/2000/svg">
<path d="M2.23881 29.5509L1.72019 31.6963C0.795709 42.3602 1.33939 47.8616 1.5257 58.0261C1.53861 74.344 0.336448 109.36 1.5257 118.552C2.9206 129.333 14.3187 134.912 18.6404 135H63.5664H103.89L107.909 133.895C111.143 132.456 112.954 131.22 116.207 128.174C118.334 124.975 119.324 122.658 120.875 117.967V73.0438V41.318C121.212 39.635 120.748 35.7863 120.875 35.272C121.091 34.3951 120.291 31.3712 120.097 30.006C119.941 28.9138 118.303 25.8236 117.504 24.415C112.36 16.3801 105.895 14.3169 87.6825 15.1833H56.0463C56.0463 15.1833 38.309 14.8581 36.6626 15.1833C35.0163 15.5086 26.279 14.7911 17.668 15.5734C12.943 16.0027 8.33267 20.3193 8.33267 20.3193C8.33267 20.3193 4.23264 24.4577 2.23881 29.5509Z" fill="#0148FF" stroke="#CABCBC"/>
<path d="M81.1089 76.056C84.9489 77.272 87.9569 79.32 90.1329 82.2C92.3089 85.016 93.3969 88.504 93.3969 92.664C93.3969 98.552 91.0929 103.096 86.4849 106.296C81.9409 109.432 75.2849 111 66.5169 111H31.7649V43.8H64.5969C72.7889 43.8 79.0609 45.368 83.4129 48.504C87.8289 51.64 90.0369 55.896 90.0369 61.272C90.0369 64.536 89.2369 67.448 87.6369 70.008C86.1009 72.568 83.9249 74.584 81.1089 76.056ZM47.2209 55.512V71.352H62.6769C66.5169 71.352 69.4289 70.68 71.4129 69.336C73.3969 67.992 74.3889 66.008 74.3889 63.384C74.3889 60.76 73.3969 58.808 71.4129 57.528C69.4289 56.184 66.5169 55.512 62.6769 55.512H47.2209ZM65.3649 99.288C69.4609 99.288 72.5329 98.616 74.5809 97.272C76.6929 95.928 77.7489 93.848 77.7489 91.032C77.7489 85.464 73.6209 82.68 65.3649 82.68H47.2209V99.288H65.3649Z" fill="white"/>
</svg>
