<svg width="120" height="120" viewBox="0 0 120 120" fill="none" xmlns="http://www.w3.org/2000/svg">
<path d="M11.2994 106.913L0 0H120L109.831 106.913L60.565 120L11.2994 106.913Z" fill="#0148FF"/>
<path d="M20.8303 33.3109L19.6982 21.6721H99.1699L97.585 35.3176L65.2077 47.7591H96.2265L94.1888 78.4614L92.8303 88.0935L61.1322 97.3243L43.4718 92.7089L35.3209 90.5015L26.7171 88.0935L24.9058 78.4614V68.8293H39.6228V74.2474V80.0668L48.2265 81.2708L57.736 82.6755H62.4907L67.6982 81.2708L77.4341 78.4614L78.1133 69.632L78.7926 60.6019L23.5473 61.4046V47.7591L58.6416 33.3109H20.8303Z" fill="white"/>
</svg>
