<svg width="120" height="151" viewBox="0 0 120 151" fill="none" xmlns="http://www.w3.org/2000/svg">
<rect x="19" y="130" width="80" height="21" rx="2" fill="#0148FF"/>
<path d="M49.016 146.144C48.16 146.144 47.384 145.96 46.688 145.592C46 145.216 45.456 144.7 45.056 144.044C44.664 143.38 44.468 142.632 44.468 141.8C44.468 140.968 44.664 140.224 45.056 139.568C45.456 138.904 46 138.388 46.688 138.02C47.384 137.644 48.164 137.456 49.028 137.456C49.756 137.456 50.412 137.584 50.996 137.84C51.588 138.096 52.084 138.464 52.484 138.944L51.236 140.096C50.668 139.44 49.964 139.112 49.124 139.112C48.604 139.112 48.14 139.228 47.732 139.46C47.324 139.684 47.004 140 46.772 140.408C46.548 140.816 46.436 141.28 46.436 141.8C46.436 142.32 46.548 142.784 46.772 143.192C47.004 143.6 47.324 143.92 47.732 144.152C48.14 144.376 48.604 144.488 49.124 144.488C49.964 144.488 50.668 144.156 51.236 143.492L52.484 144.644C52.084 145.132 51.588 145.504 50.996 145.76C50.404 146.016 49.744 146.144 49.016 146.144ZM56.4865 146.144C55.8225 146.144 55.1785 146.056 54.5545 145.88C53.9385 145.696 53.4425 145.46 53.0665 145.172L53.7265 143.708C54.0865 143.972 54.5145 144.184 55.0105 144.344C55.5065 144.504 56.0025 144.584 56.4985 144.584C57.0505 144.584 57.4585 144.504 57.7225 144.344C57.9865 144.176 58.1185 143.956 58.1185 143.684C58.1185 143.484 58.0385 143.32 57.8785 143.192C57.7265 143.056 57.5265 142.948 57.2785 142.868C57.0385 142.788 56.7105 142.7 56.2945 142.604C55.6545 142.452 55.1305 142.3 54.7225 142.148C54.3145 141.996 53.9625 141.752 53.6665 141.416C53.3785 141.08 53.2345 140.632 53.2345 140.072C53.2345 139.584 53.3665 139.144 53.6305 138.752C53.8945 138.352 54.2905 138.036 54.8185 137.804C55.3545 137.572 56.0065 137.456 56.7745 137.456C57.3105 137.456 57.8345 137.52 58.3465 137.648C58.8585 137.776 59.3065 137.96 59.6905 138.2L59.0905 139.676C58.3145 139.236 57.5385 139.016 56.7625 139.016C56.2185 139.016 55.8145 139.104 55.5505 139.28C55.2945 139.456 55.1665 139.688 55.1665 139.976C55.1665 140.264 55.3145 140.48 55.6105 140.624C55.9145 140.76 56.3745 140.896 56.9905 141.032C57.6305 141.184 58.1545 141.336 58.5625 141.488C58.9705 141.64 59.3185 141.88 59.6065 142.208C59.9025 142.536 60.0505 142.98 60.0505 143.54C60.0505 144.02 59.9145 144.46 59.6425 144.86C59.3785 145.252 58.9785 145.564 58.4425 145.796C57.9065 146.028 57.2545 146.144 56.4865 146.144ZM64.1388 146.144C63.4748 146.144 62.8308 146.056 62.2068 145.88C61.5908 145.696 61.0948 145.46 60.7188 145.172L61.3788 143.708C61.7388 143.972 62.1668 144.184 62.6628 144.344C63.1588 144.504 63.6548 144.584 64.1508 144.584C64.7028 144.584 65.1108 144.504 65.3748 144.344C65.6388 144.176 65.7708 143.956 65.7708 143.684C65.7708 143.484 65.6908 143.32 65.5308 143.192C65.3788 143.056 65.1788 142.948 64.9308 142.868C64.6908 142.788 64.3628 142.7 63.9468 142.604C63.3068 142.452 62.7828 142.3 62.3748 142.148C61.9668 141.996 61.6148 141.752 61.3188 141.416C61.0308 141.08 60.8868 140.632 60.8868 140.072C60.8868 139.584 61.0188 139.144 61.2828 138.752C61.5468 138.352 61.9428 138.036 62.4708 137.804C63.0068 137.572 63.6588 137.456 64.4268 137.456C64.9628 137.456 65.4868 137.52 65.9988 137.648C66.5108 137.776 66.9588 137.96 67.3428 138.2L66.7428 139.676C65.9668 139.236 65.1908 139.016 64.4148 139.016C63.8708 139.016 63.4668 139.104 63.2028 139.28C62.9468 139.456 62.8188 139.688 62.8188 139.976C62.8188 140.264 62.9668 140.48 63.2628 140.624C63.5668 140.76 64.0268 140.896 64.6428 141.032C65.2828 141.184 65.8068 141.336 66.2148 141.488C66.6228 141.64 66.9708 141.88 67.2588 142.208C67.5548 142.536 67.7028 142.98 67.7028 143.54C67.7028 144.02 67.5668 144.46 67.2948 144.86C67.0308 145.252 66.6308 145.564 66.0948 145.796C65.5588 146.028 64.9068 146.144 64.1388 146.144ZM72.3803 141.02C73.1163 141.14 73.6803 141.416 74.0723 141.848C74.4643 142.272 74.6603 142.8 74.6603 143.432C74.6603 143.92 74.5323 144.372 74.2763 144.788C74.0203 145.196 73.6283 145.524 73.1003 145.772C72.5803 146.02 71.9403 146.144 71.1803 146.144C70.5883 146.144 70.0043 146.068 69.4283 145.916C68.8603 145.756 68.3763 145.532 67.9763 145.244L68.7323 143.756C69.0523 143.996 69.4203 144.184 69.8363 144.32C70.2603 144.448 70.6923 144.512 71.1323 144.512C71.6203 144.512 72.0043 144.42 72.2843 144.236C72.5643 144.044 72.7043 143.776 72.7043 143.432C72.7043 142.744 72.1803 142.4 71.1323 142.4H70.2443V141.116L71.9723 139.16H68.3963V137.6H74.2763V138.86L72.3803 141.02Z" fill="white"/>
<path d="M11.2994 106.913L0 0H120L109.831 106.913L60.565 120L11.2994 106.913Z" fill="#0148FF"/>
<path d="M20.8303 29.1906L19.6982 16H99.1699L97.585 31.4649L65.2077 45.5652H96.2265L94.1888 80.3612L92.8303 91.2776L61.1322 101.739L43.4718 96.5084L35.3209 94.0067L26.7171 91.2776L24.9058 80.3612V69.4448H39.6228V75.5853V82.1806L48.2265 83.5452L57.736 85.1371H62.4907L67.6982 83.5452L77.4341 80.3612L78.1133 70.3545L78.7926 60.1204L23.5473 61.0301V45.5652L58.6416 29.1906H20.8303Z" fill="white"/>
</svg>
