<svg width="124" height="153" viewBox="0 0 124 153" fill="none" xmlns="http://www.w3.org/2000/svg">
<path d="M102.592 18.1538L93.188 11.0769L87.6857 7.94872L81.7832 5.48718L74.5302 3.4359L67.1271 2.25641L59.4239 2L51.8208 2.76923L44.5177 4.5641L36.8645 7.53846L28.2609 12.359L21.108 18.359L13.905 26.4615L8.40267 35.4359L4.85119 44.0513L2.45019 53.1282L2 63.4872L2.65027 74.1538L4.85119 82.9231L7.95248 90.6667L12.7545 98.8205L18.4068 105.897C18.4068 105.897 22.9069 110.683 28.5611 114.769C33.3345 118.219 39.1291 121.007 41.7165 121.641C47.3689 123.026 47.0188 119.692 47.0188 119.692V114.205V107.487L44.3677 108L41.7165 108.103H38.5652L35.614 107.795L33.263 106.974L30.9621 105.897L28.5611 103.744L27.4606 101.846L26.5602 99.7949L24.4093 95.8462L21.5081 92.2051C21.5081 92.2051 17.1563 90.3846 17.9566 88.359C18.757 86.3333 24.4093 88.5128 24.4093 88.5128L25.8599 89.4872L27.4106 90.8718L28.7111 92.359L29.7616 93.8974L32.1626 97.1282L34.0133 98.7179L35.514 99.4872L36.8645 100.103L38.8153 100.513L40.8662 100.564L44.1175 100.103L47.4189 98.8205L47.4689 98.1538L47.519 97.4872L47.8191 96.3077L48.1692 95.1282L48.6694 94L49.6198 92.359L50.8704 90.6667L46.6186 90L43.6173 89.2821L40.7662 88.5128L38.5152 87.4872L36.3643 86.4615L35.3139 85.7949L34.2634 85.1282L32.1125 83.4359L30.6619 82L29.4114 80.6154L28.311 78.9744L27.4106 77.3846L27.0104 76.6154L26.6103 75.7949L25.8599 74.1538L24.7095 70.0513L24.3093 68.0513L24.0592 65.8974L23.8091 61.6923L23.8591 58.359L24.0092 56.7179L24.3093 55.1795L25.2097 51.641L27.0104 47.6923L28.411 45.7436L29.9116 43.8974L28.9612 40.3077L28.7111 38.359L28.6611 36.359L29.2614 31.0256L30.5619 27.5897H33.6132L36.3643 28.2564L40.0659 29.7949L43.7674 31.5385L47.1688 33.7949L49.7699 33.1795L54.0717 32.2564L62.025 31.5385L70.0284 32.2564L77.1313 33.7949L79.2322 32.2564L83.4339 29.7949L88.8362 27.5897L91.2872 27.2308L93.6382 27.5897L94.6386 30.9744L94.9387 33.0769L95.2389 35.2821V39.641L94.3385 43.7436L96.7395 47.3846L98.5902 50.7179L99.6907 54.2051L100.091 58L100.341 61.0256L100.091 64.1026L99.3906 70.0513L98.4402 73.6923L96.8395 77.2821L94.6886 80.5128L91.9375 83.5897L86.4352 87.3846L79.1822 89.6923L75.9308 90.2051L72.7795 90.5128L73.4298 91.3846L74.4802 92.6667L75.0805 93.8462L75.9308 95.7949L76.8812 100.205C76.8812 100.205 76.7311 118.821 76.8812 119.949C77.0313 121.077 79.2322 122 79.2322 122H81.133L82.8337 121.385L87.7357 119.231L95.9892 114.308L104.143 107.538L110.845 99.4359L114.997 92.5641L118.298 85.0256L121.05 74.3077L122 63.1795L120.95 52.4103L117.898 40.9231L114.647 34L110.845 27.5897L102.592 18.1538Z" fill="#0148FF" stroke="white" stroke-width="2"/>
<rect x="22" y="132.138" width="80" height="20.8618" rx="2" fill="#0148FF"/>
<path d="M43.672 143.793H45.448V148.125H43.984V147.621C43.4 148.053 42.648 148.269 41.728 148.269C40.952 148.269 40.24 148.101 39.592 147.765C38.944 147.429 38.428 146.941 38.044 146.301C37.66 145.653 37.468 144.885 37.468 143.997C37.468 143.141 37.664 142.381 38.056 141.717C38.456 141.045 39.008 140.521 39.712 140.145C40.416 139.769 41.208 139.581 42.088 139.581C42.824 139.581 43.492 139.705 44.092 139.953C44.692 140.201 45.196 140.561 45.604 141.033L44.356 142.185C43.756 141.553 43.032 141.237 42.184 141.237C41.648 141.237 41.172 141.353 40.756 141.585C40.34 141.809 40.016 142.129 39.784 142.545C39.552 142.961 39.436 143.441 39.436 143.985C39.436 144.553 39.548 145.037 39.772 145.437C40.004 145.837 40.312 146.141 40.696 146.349C41.08 146.549 41.5 146.649 41.956 146.649C42.636 146.649 43.208 146.457 43.672 146.073V143.793ZM47.1218 141.669H48.9938V148.125H47.1218V141.669ZM48.0578 140.769C47.7138 140.769 47.4338 140.669 47.2178 140.469C47.0018 140.269 46.8938 140.021 46.8938 139.725C46.8938 139.429 47.0018 139.181 47.2178 138.981C47.4338 138.781 47.7138 138.681 48.0578 138.681C48.4018 138.681 48.6818 138.777 48.8978 138.969C49.1138 139.161 49.2218 139.401 49.2218 139.689C49.2218 140.001 49.1138 140.261 48.8978 140.469C48.6818 140.669 48.4018 140.769 48.0578 140.769ZM54.6192 147.813C54.4352 147.949 54.2072 148.053 53.9352 148.125C53.6712 148.189 53.3952 148.221 53.1072 148.221C52.3312 148.221 51.7352 148.025 51.3192 147.633C50.9032 147.241 50.6952 146.665 50.6952 145.905V140.241H52.5672V141.813H54.1632V143.253H52.5672V145.881C52.5672 146.153 52.6352 146.365 52.7712 146.517C52.9072 146.661 53.1032 146.733 53.3592 146.733C53.6472 146.733 53.9032 146.653 54.1272 146.493L54.6192 147.813ZM59.6005 141.573C60.4005 141.573 61.0445 141.813 61.5325 142.293C62.0285 142.773 62.2765 143.485 62.2765 144.429V148.125H60.4045V144.717C60.4045 144.205 60.2925 143.825 60.0685 143.577C59.8445 143.321 59.5205 143.193 59.0965 143.193C58.6245 143.193 58.2485 143.341 57.9685 143.637C57.6885 143.925 57.5485 144.357 57.5485 144.933V148.125H55.6765V139.221H57.5485V142.341C57.7965 142.093 58.0965 141.905 58.4485 141.777C58.8005 141.641 59.1845 141.573 59.6005 141.573ZM70.4774 141.669V148.125H68.7014V147.357C68.4534 147.637 68.1574 147.853 67.8134 148.005C67.4694 148.149 67.0974 148.221 66.6974 148.221C65.8494 148.221 65.1774 147.977 64.6814 147.489C64.1854 147.001 63.9374 146.277 63.9374 145.317V141.669H65.8094V145.041C65.8094 146.081 66.2454 146.601 67.1174 146.601C67.5654 146.601 67.9254 146.457 68.1974 146.169C68.4694 145.873 68.6054 145.437 68.6054 144.861V141.669H70.4774ZM76.0277 141.573C76.6277 141.573 77.1717 141.713 77.6597 141.993C78.1557 142.265 78.5437 142.653 78.8237 143.157C79.1037 143.653 79.2437 144.233 79.2437 144.897C79.2437 145.561 79.1037 146.145 78.8237 146.649C78.5437 147.145 78.1557 147.533 77.6597 147.813C77.1717 148.085 76.6277 148.221 76.0277 148.221C75.1397 148.221 74.4637 147.941 73.9997 147.381V148.125H72.2117V139.221H74.0837V142.353C74.5557 141.833 75.2037 141.573 76.0277 141.573ZM75.7037 146.685C76.1837 146.685 76.5757 146.525 76.8797 146.205C77.1917 145.877 77.3477 145.441 77.3477 144.897C77.3477 144.353 77.1917 143.921 76.8797 143.601C76.5757 143.273 76.1837 143.109 75.7037 143.109C75.2237 143.109 74.8277 143.273 74.5157 143.601C74.2117 143.921 74.0597 144.353 74.0597 144.897C74.0597 145.441 74.2117 145.877 74.5157 146.205C74.8277 146.525 75.2237 146.685 75.7037 146.685Z" fill="white"/>
</svg>
