<svg width="124" height="123" viewBox="0 0 124 123" fill="none" xmlns="http://www.w3.org/2000/svg">
<path d="M102.592 18.1538L93.188 11.0769L87.6857 7.94872L81.7832 5.48718L74.5302 3.4359L67.1271 2.25641L59.4239 2L51.8208 2.76923L44.5177 4.5641L36.8645 7.53846L28.2609 12.359L21.108 18.359L13.905 26.4615L8.40267 35.4359L4.85119 44.0513L2.45019 53.1282L2 63.4872L2.65027 74.1538L4.85119 82.9231L7.95248 90.6667L12.7545 98.8205L18.4068 105.897C18.4068 105.897 22.9069 110.683 28.5611 114.769C33.3345 118.219 39.1291 121.007 41.7165 121.641C47.3689 123.026 47.0188 119.692 47.0188 119.692V114.205V107.487L44.3677 108L41.7165 108.103H38.5652L35.614 107.795L33.263 106.974L30.9621 105.897L28.5611 103.744L27.4606 101.846L26.5602 99.7949L24.4093 95.8462L21.5081 92.2051C21.5081 92.2051 17.1563 90.3846 17.9566 88.359C18.757 86.3333 24.4093 88.5128 24.4093 88.5128L25.8599 89.4872L27.4106 90.8718L28.7111 92.359L29.7616 93.8974L32.1626 97.1282L34.0133 98.7179L35.514 99.4872L36.8645 100.103L38.8153 100.513L40.8662 100.564L44.1175 100.103L47.4189 98.8205L47.4689 98.1538L47.519 97.4872L47.8191 96.3077L48.1692 95.1282L48.6694 94L49.6198 92.359L50.8704 90.6667L46.6186 90L43.6173 89.2821L40.7662 88.5128L38.5152 87.4872L36.3643 86.4615L35.3139 85.7949L34.2634 85.1282L32.1125 83.4359L30.6619 82L29.4114 80.6154L28.311 78.9744L27.4106 77.3846L27.0104 76.6154L26.6103 75.7949L25.8599 74.1538L24.7095 70.0513L24.3093 68.0513L24.0592 65.8974L23.8091 61.6923L23.8591 58.359L24.0092 56.7179L24.3093 55.1795L25.2097 51.641L27.0104 47.6923L28.411 45.7436L29.9116 43.8974L28.9612 40.3077L28.7111 38.359L28.6611 36.359L29.2614 31.0256L30.5619 27.5897H33.6132L36.3643 28.2564L40.0659 29.7949L43.7674 31.5385L47.1688 33.7949L49.7699 33.1795L54.0717 32.2564L62.025 31.5385L70.0284 32.2564L77.1313 33.7949L79.2322 32.2564L83.4339 29.7949L88.8362 27.5897L91.2872 27.2308L93.6382 27.5897L94.6386 30.9744L94.9387 33.0769L95.2389 35.2821V39.641L94.3385 43.7436L96.7395 47.3846L98.5902 50.7179L99.6907 54.2051L100.091 58L100.341 61.0256L100.091 64.1026L99.3906 70.0513L98.4402 73.6923L96.8395 77.2821L94.6886 80.5128L91.9375 83.5897L86.4352 87.3846L79.1822 89.6923L75.9308 90.2051L72.7795 90.5128L73.4298 91.3846L74.4802 92.6667L75.0805 93.8462L75.9308 95.7949L76.8812 100.205C76.8812 100.205 76.7311 118.821 76.8812 119.949C77.0313 121.077 79.2322 122 79.2322 122H81.133L82.8337 121.385L87.7357 119.231L95.9892 114.308L104.143 107.538L110.845 99.4359L114.997 92.5641L118.298 85.0256L121.05 74.3077L122 63.1795L120.95 52.4103L117.898 40.9231L114.647 34L110.845 27.5897L102.592 18.1538Z" fill="#0148FF" stroke="white" stroke-width="2"/>
</svg>
