<svg width="120" height="151" viewBox="0 0 120 151" fill="none" xmlns="http://www.w3.org/2000/svg">
<path d="M60.3883 120L11.2621 107.088L6.21359 53.5438L0 0H120L109.126 107.088L60.3883 120Z" fill="#0148FF"/>
<path d="M97.8641 21.6931H22.9126L26.6019 61.9801H53.2039H78.6408L76.699 79.1967L60.3883 82.9844L51.8446 80.7462L43.6893 79.1967L42.9126 68.3502H27.767L28.3495 78.6802L29.5145 89.1824L60.3883 96.7577L91.2621 89.3545L95.1456 48.2067H40L39.4175 35.2943H96.699L97.8641 21.6931Z" fill="white"/>
<rect x="20" y="130" width="80" height="21" rx="2" fill="#0148FF"/>
<path d="M43.7 137.6V146H41.756V142.556H37.94V146H35.996V137.6H37.94V140.912H41.756V137.6H43.7ZM51.8074 139.952C51.0874 139.536 50.3154 139.268 49.4914 139.148V146H47.5474V139.148C46.7234 139.268 45.9474 139.536 45.2194 139.952L44.5594 138.5C45.1354 138.156 45.7594 137.896 46.4314 137.72C47.1034 137.544 47.7954 137.456 48.5074 137.456C49.2274 137.456 49.9234 137.544 50.5954 137.72C51.2754 137.896 51.8994 138.156 52.4674 138.5L51.8074 139.952ZM62.9278 137.456C63.9198 137.456 64.6918 137.748 65.2438 138.332C65.7958 138.908 66.0718 139.744 66.0718 140.84V146H64.1278V140.9C64.1278 140.308 63.9718 139.864 63.6598 139.568C63.3558 139.264 62.9518 139.112 62.4478 139.112C61.8958 139.112 61.4558 139.272 61.1278 139.592C60.7998 139.904 60.6358 140.38 60.6358 141.02V146H58.6918V140.9C58.6918 140.308 58.5478 139.864 58.2598 139.568C57.9718 139.264 57.5798 139.112 57.0838 139.112C56.5398 139.112 56.1038 139.272 55.7758 139.592C55.4478 139.904 55.2838 140.38 55.2838 141.02V146H53.3398V137.6H55.2238V138.632C55.4798 138.256 55.8198 137.968 56.2438 137.768C56.6678 137.56 57.1558 137.456 57.7078 137.456C58.2838 137.456 58.7878 137.564 59.2198 137.78C59.6518 137.988 59.9838 138.292 60.2158 138.692C60.5038 138.292 60.8798 137.988 61.3438 137.78C61.8158 137.564 62.3438 137.456 62.9278 137.456ZM67.9882 137.6H69.9322V144.416H74.1442V146H67.9882V137.6ZM77.5824 140.756C78.7664 140.756 79.6384 140.992 80.1984 141.464C80.7664 141.936 81.0504 142.568 81.0504 143.36C81.0504 143.872 80.9224 144.34 80.6664 144.764C80.4104 145.18 80.0184 145.516 79.4904 145.772C78.9704 146.02 78.3264 146.144 77.5584 146.144C76.9664 146.144 76.3824 146.068 75.8064 145.916C75.2384 145.756 74.7544 145.532 74.3544 145.244L75.1224 143.756C75.4424 143.996 75.8104 144.184 76.2264 144.32C76.6424 144.448 77.0704 144.512 77.5104 144.512C77.9984 144.512 78.3824 144.416 78.6624 144.224C78.9424 144.032 79.0824 143.764 79.0824 143.42C79.0824 143.06 78.9344 142.788 78.6384 142.604C78.3504 142.42 77.8464 142.328 77.1264 142.328H74.9784L75.4104 137.6H80.5344V139.16H77.0304L76.8984 140.756H77.5824Z" fill="white"/>
</svg>
