<svg width="120" height="151" viewBox="0 0 120 151" fill="none" xmlns="http://www.w3.org/2000/svg">
<rect x="20" y="129.718" width="80" height="21.2819" rx="2" fill="#0148FF"/>
<path d="M29.52 147.089C28.952 147.089 28.432 146.981 27.96 146.765C27.496 146.557 27.112 146.257 26.808 145.865L27.864 144.569C28.32 145.185 28.836 145.493 29.412 145.493C30.212 145.493 30.612 145.029 30.612 144.101V138.905H27.672V137.345H32.556V143.993C32.556 145.025 32.3 145.797 31.788 146.309C31.276 146.829 30.52 147.089 29.52 147.089ZM40.8965 139.289V145.745H39.1085V145.001C38.6445 145.561 37.9725 145.841 37.0925 145.841C36.4845 145.841 35.9325 145.705 35.4365 145.433C34.9485 145.161 34.5645 144.773 34.2845 144.269C34.0045 143.765 33.8645 143.181 33.8645 142.517C33.8645 141.853 34.0045 141.269 34.2845 140.765C34.5645 140.261 34.9485 139.873 35.4365 139.601C35.9325 139.329 36.4845 139.193 37.0925 139.193C37.9165 139.193 38.5605 139.453 39.0245 139.973V139.289H40.8965ZM37.4165 144.305C37.8885 144.305 38.2805 144.145 38.5925 143.825C38.9045 143.497 39.0605 143.061 39.0605 142.517C39.0605 141.973 38.9045 141.541 38.5925 141.221C38.2805 140.893 37.8885 140.729 37.4165 140.729C36.9365 140.729 36.5405 140.893 36.2285 141.221C35.9165 141.541 35.7605 141.973 35.7605 142.517C35.7605 143.061 35.9165 143.497 36.2285 143.825C36.5405 144.145 36.9365 144.305 37.4165 144.305ZM49.0376 139.289L46.3136 145.745H44.3816L41.6696 139.289H43.6016L45.3896 143.681L47.2376 139.289H49.0376ZM56.1777 139.289V145.745H54.3897V145.001C53.9257 145.561 53.2537 145.841 52.3737 145.841C51.7657 145.841 51.2137 145.705 50.7177 145.433C50.2297 145.161 49.8457 144.773 49.5657 144.269C49.2857 143.765 49.1457 143.181 49.1457 142.517C49.1457 141.853 49.2857 141.269 49.5657 140.765C49.8457 140.261 50.2297 139.873 50.7177 139.601C51.2137 139.329 51.7657 139.193 52.3737 139.193C53.1977 139.193 53.8417 139.453 54.3057 139.973V139.289H56.1777ZM52.6977 144.305C53.1697 144.305 53.5617 144.145 53.8737 143.825C54.1857 143.497 54.3417 143.061 54.3417 142.517C54.3417 141.973 54.1857 141.541 53.8737 141.221C53.5617 140.893 53.1697 140.729 52.6977 140.729C52.2177 140.729 51.8217 140.893 51.5097 141.221C51.1977 141.541 51.0417 141.973 51.0417 142.517C51.0417 143.061 51.1977 143.497 51.5097 143.825C51.8217 144.145 52.2177 144.305 52.6977 144.305ZM60.0829 145.841C59.5469 145.841 59.0229 145.777 58.5109 145.649C57.9989 145.513 57.5909 145.345 57.2869 145.145L57.9109 143.801C58.1989 143.985 58.5469 144.137 58.9549 144.257C59.3629 144.369 59.7629 144.425 60.1549 144.425C60.9469 144.425 61.3429 144.229 61.3429 143.837C61.3429 143.653 61.2349 143.521 61.0189 143.441C60.8029 143.361 60.4709 143.293 60.0229 143.237C59.4949 143.157 59.0589 143.065 58.7149 142.961C58.3709 142.857 58.0709 142.673 57.8149 142.409C57.5669 142.145 57.4429 141.769 57.4429 141.281C57.4429 140.873 57.5589 140.513 57.7909 140.201C58.0309 139.881 58.3749 139.633 58.8229 139.457C59.2789 139.281 59.8149 139.193 60.4309 139.193C60.8869 139.193 61.3389 139.245 61.7869 139.349C62.2429 139.445 62.6189 139.581 62.9149 139.757L62.2909 141.089C61.7229 140.769 61.1029 140.609 60.4309 140.609C60.0309 140.609 59.7309 140.665 59.5309 140.777C59.3309 140.889 59.2309 141.033 59.2309 141.209C59.2309 141.409 59.3389 141.549 59.5549 141.629C59.7709 141.709 60.1149 141.785 60.5869 141.857C61.1149 141.945 61.5469 142.041 61.8829 142.145C62.2189 142.241 62.5109 142.421 62.7589 142.685C63.0069 142.949 63.1309 143.317 63.1309 143.789C63.1309 144.189 63.0109 144.545 62.7709 144.857C62.5309 145.169 62.1789 145.413 61.7149 145.589C61.2589 145.757 60.7149 145.841 60.0829 145.841ZM67.4059 145.841C66.7179 145.841 66.0979 145.701 65.5459 145.421C65.0019 145.133 64.5739 144.737 64.2619 144.233C63.9579 143.729 63.8059 143.157 63.8059 142.517C63.8059 141.877 63.9579 141.305 64.2619 140.801C64.5739 140.297 65.0019 139.905 65.5459 139.625C66.0979 139.337 66.7179 139.193 67.4059 139.193C68.0859 139.193 68.6779 139.337 69.1819 139.625C69.6939 139.905 70.0659 140.309 70.2979 140.837L68.8459 141.617C68.5099 141.025 68.0259 140.729 67.3939 140.729C66.9059 140.729 66.5019 140.889 66.1819 141.209C65.8619 141.529 65.7019 141.965 65.7019 142.517C65.7019 143.069 65.8619 143.505 66.1819 143.825C66.5019 144.145 66.9059 144.305 67.3939 144.305C68.0339 144.305 68.5179 144.009 68.8459 143.417L70.2979 144.209C70.0659 144.721 69.6939 145.121 69.1819 145.409C68.6779 145.697 68.0859 145.841 67.4059 145.841ZM73.1637 140.141C73.3877 139.829 73.6877 139.593 74.0637 139.433C74.4477 139.273 74.8877 139.193 75.3837 139.193V140.921C75.1757 140.905 75.0357 140.897 74.9637 140.897C74.4277 140.897 74.0077 141.049 73.7037 141.353C73.3997 141.649 73.2477 142.097 73.2477 142.697V145.745H71.3757V139.289H73.1637V140.141ZM76.4968 139.289H78.3688V145.745H76.4968V139.289ZM77.4328 138.389C77.0888 138.389 76.8088 138.289 76.5928 138.089C76.3768 137.889 76.2688 137.641 76.2688 137.345C76.2688 137.049 76.3768 136.801 76.5928 136.601C76.8088 136.401 77.0888 136.301 77.4328 136.301C77.7768 136.301 78.0568 136.397 78.2728 136.589C78.4888 136.781 78.5968 137.021 78.5968 137.309C78.5968 137.621 78.4888 137.881 78.2728 138.089C78.0568 138.289 77.7768 138.389 77.4328 138.389ZM83.9222 139.193C84.5222 139.193 85.0662 139.333 85.5542 139.613C86.0502 139.885 86.4382 140.273 86.7182 140.777C86.9982 141.273 87.1382 141.853 87.1382 142.517C87.1382 143.181 86.9982 143.765 86.7182 144.269C86.4382 144.765 86.0502 145.153 85.5542 145.433C85.0662 145.705 84.5222 145.841 83.9222 145.841C83.0982 145.841 82.4502 145.581 81.9782 145.061V148.073H80.1062V139.289H81.8942V140.033C82.3582 139.473 83.0342 139.193 83.9222 139.193ZM83.5982 144.305C84.0782 144.305 84.4702 144.145 84.7742 143.825C85.0862 143.497 85.2422 143.061 85.2422 142.517C85.2422 141.973 85.0862 141.541 84.7742 141.221C84.4702 140.893 84.0782 140.729 83.5982 140.729C83.1182 140.729 82.7222 140.893 82.4102 141.221C82.1062 141.541 81.9542 141.973 81.9542 142.517C81.9542 143.061 82.1062 143.497 82.4102 143.825C82.7222 144.145 83.1182 144.305 83.5982 144.305ZM92.2793 145.433C92.0953 145.569 91.8673 145.673 91.5953 145.745C91.3313 145.809 91.0553 145.841 90.7673 145.841C89.9913 145.841 89.3953 145.645 88.9793 145.253C88.5633 144.861 88.3553 144.285 88.3553 143.525V137.861H90.2273V139.433H91.8233V140.873H90.2273V143.501C90.2273 143.773 90.2953 143.985 90.4313 144.137C90.5673 144.281 90.7633 144.353 91.0193 144.353C91.3073 144.353 91.5633 144.273 91.7873 144.113L92.2793 145.433Z" fill="white"/>
<path d="M11.0638 108.05L0 0H120L108.652 108.05L59.0071 120L11.0638 108.05Z" fill="#0148FF"/>
<path d="M43.1208 79.2239V22.96H55.0357V94.8667L20.1421 86.5407V73.4209L43.1208 79.2239Z" fill="white"/>
<path d="M64.9648 70.3932L63.83 23.7169H102.695L101.844 36.8367L76.3123 36.0798V54.7503L100.142 53.2365L97.0215 87.8022L64.9648 94.6144L64.3974 82.2515L87.0924 77.2054L88.5109 66.3563L64.9648 70.3932Z" fill="white"/>
</svg>
