<svg width="122" height="122" viewBox="0 0 122 122" fill="none" xmlns="http://www.w3.org/2000/svg">
<path d="M3.40469 44.5777L1.58651 52.3783V52.4956L1.35191 54.1965L1.1173 56.8944L1 59.1818V61.176L1.1173 64.695L1.35191 67.8035L1.93842 71.7331L2.81818 75.6041L4.16716 80.1202L6.21994 85.3402L8.68328 90.2082L10.9707 94.1378L14.1378 98.2434L16.9531 101.704L19.4751 104.284L22.6422 107.1L25.868 109.622L29.563 112.026L33.0235 114.079L36.0733 115.604L39.8856 117.246L42.2317 118.067L45.6921 119.065L48.6246 119.768L51.8504 120.413L54.0205 120.648L55.3695 120.765L56.6012 120.883L58.1847 121H62.7009L66.7478 120.824L68.566 120.648L70.3255 120.413L71.1466 120.238L71.8504 120.12L72.8475 119.827L74.0205 119.592L75.6628 119.24L77.3636 118.83L78.3021 118.537L80.0616 118.009L81.5865 117.54L83.5806 116.777L85.5161 115.956L88.566 114.431L91.0293 113.082L93.0821 111.85L94.9589 110.56L97.8328 108.566L100.179 106.631L104.226 102.877L105.516 101.528L106.924 99.7683L108.449 98.0088L109.856 96.0147L111.147 94.2551L112.378 92.437L113.727 90.0909L115.018 87.5103L116.191 84.9883L117.246 82.5836L117.95 80.5308L118.478 78.8299L119.006 77.0704L119.71 74.607L119.886 73.9619L120.12 73.0235L120.296 71.6745L120.531 70.0909L120.824 68.4487L121 65.3402V60.9413V58.1847V55.7801L120.472 52.2023L119.768 48.3314L118.243 42.4076L116.249 37.1877L114.138 32.8475L111.205 27.8622L105.985 21.0587L101.117 16.1906L95.0176 11.3812L90.2669 8.39003L84.695 5.69208L78.7713 3.52199L74.4897 2.29032L69.5044 1.41056L64.2258 1H58.2434L54.0205 1.41056L48.39 2.29032L41 4.46041L35.1349 6.80645L29.5044 9.68035L23.8739 13.8446L17.7742 19.3578L15.2522 22.5249L12.085 26.5132L9.03519 31.2639L5.86804 38.0088L3.40469 44.5777Z" fill="#0148FF" stroke="white" stroke-width="2"/>
<path d="M34.6001 76.0411V29.5984H43.394L88.1879 99.3999H82.1421L42.2948 42.7892V76.0411H34.6001Z" fill="white"/>
<path d="M68.9512 59.2778V27.3999H77.1954V69.7205L68.9512 59.2778Z" fill="white"/>
</svg>
