<svg width="122" height="152" viewBox="0 0 122 152" fill="none" xmlns="http://www.w3.org/2000/svg">
<rect x="23" y="131.138" width="80" height="20.8618" rx="2" fill="#0148FF"/>
<path d="M43.448 138.581C44.448 138.581 45.228 138.897 45.788 139.529C46.348 140.153 46.628 141.045 46.628 142.205V147.125H44.684V142.265C44.684 141.593 44.524 141.089 44.204 140.753C43.892 140.409 43.456 140.237 42.896 140.237C42.304 140.237 41.828 140.421 41.468 140.789C41.116 141.149 40.94 141.685 40.94 142.397V147.125H38.996V138.725H40.88V139.745C41.168 139.361 41.528 139.073 41.96 138.881C42.392 138.681 42.888 138.581 43.448 138.581ZM51.6668 145.721C52.0028 145.721 52.2988 145.673 52.5548 145.577C52.8188 145.473 53.0628 145.313 53.2868 145.097L54.2828 146.177C53.6748 146.873 52.7868 147.221 51.6188 147.221C50.8908 147.221 50.2468 147.081 49.6868 146.801C49.1268 146.513 48.6948 146.117 48.3908 145.613C48.0868 145.109 47.9348 144.537 47.9348 143.897C47.9348 143.265 48.0828 142.697 48.3788 142.193C48.6828 141.681 49.0948 141.285 49.6148 141.005C50.1428 140.717 50.7348 140.573 51.3908 140.573C52.0068 140.573 52.5668 140.705 53.0708 140.969C53.5748 141.225 53.9748 141.601 54.2708 142.097C54.5748 142.585 54.7268 143.165 54.7268 143.837L49.9508 144.761C50.0868 145.081 50.2988 145.321 50.5868 145.481C50.8828 145.641 51.2428 145.721 51.6668 145.721ZM51.3908 141.989C50.9188 141.989 50.5348 142.141 50.2388 142.445C49.9428 142.749 49.7868 143.169 49.7708 143.705L52.9148 143.093C52.8268 142.757 52.6468 142.489 52.3748 142.289C52.1028 142.089 51.7748 141.989 51.3908 141.989ZM59.9133 147.125L58.4973 145.145L57.0333 147.125H54.9933L57.4773 143.873L55.0773 140.669H57.1773L58.5453 142.553L59.9493 140.669H61.9413L59.5413 143.825L62.0373 147.125H59.9133ZM66.834 146.813C66.65 146.949 66.422 147.053 66.15 147.125C65.886 147.189 65.61 147.221 65.322 147.221C64.546 147.221 63.95 147.025 63.534 146.633C63.118 146.241 62.91 145.665 62.91 144.905V139.241H64.782V140.813H66.378V142.253H64.782V144.881C64.782 145.153 64.85 145.365 64.986 145.517C65.122 145.661 65.318 145.733 65.574 145.733C65.862 145.733 66.118 145.653 66.342 145.493L66.834 146.813ZM69.5473 148.469C68.9793 148.469 68.4593 148.361 67.9873 148.145C67.5233 147.937 67.1393 147.637 66.8353 147.245L67.8913 145.949C68.3473 146.565 68.8633 146.873 69.4393 146.873C70.2393 146.873 70.6393 146.409 70.6393 145.481V140.285H67.6993V138.725H72.5833V145.373C72.5833 146.405 72.3273 147.177 71.8153 147.689C71.3033 148.209 70.5473 148.469 69.5473 148.469ZM77.2638 147.269C76.5998 147.269 75.9558 147.181 75.3318 147.005C74.7158 146.821 74.2198 146.585 73.8438 146.297L74.5038 144.833C74.8638 145.097 75.2918 145.309 75.7878 145.469C76.2838 145.629 76.7798 145.709 77.2758 145.709C77.8278 145.709 78.2358 145.629 78.4998 145.469C78.7638 145.301 78.8958 145.081 78.8958 144.809C78.8958 144.609 78.8158 144.445 78.6558 144.317C78.5038 144.181 78.3038 144.073 78.0558 143.993C77.8158 143.913 77.4878 143.825 77.0718 143.729C76.4318 143.577 75.9078 143.425 75.4998 143.273C75.0918 143.121 74.7398 142.877 74.4438 142.541C74.1558 142.205 74.0118 141.757 74.0118 141.197C74.0118 140.709 74.1438 140.269 74.4078 139.877C74.6718 139.477 75.0678 139.161 75.5958 138.929C76.1318 138.697 76.7838 138.581 77.5518 138.581C78.0878 138.581 78.6118 138.645 79.1238 138.773C79.6358 138.901 80.0838 139.085 80.4678 139.325L79.8678 140.801C79.0918 140.361 78.3158 140.141 77.5398 140.141C76.9958 140.141 76.5918 140.229 76.3278 140.405C76.0718 140.581 75.9438 140.813 75.9438 141.101C75.9438 141.389 76.0918 141.605 76.3878 141.749C76.6918 141.885 77.1518 142.021 77.7678 142.157C78.4078 142.309 78.9318 142.461 79.3398 142.613C79.7478 142.765 80.0958 143.005 80.3838 143.333C80.6798 143.661 80.8278 144.105 80.8278 144.665C80.8278 145.145 80.6918 145.585 80.4198 145.985C80.1558 146.377 79.7558 146.689 79.2198 146.921C78.6838 147.153 78.0318 147.269 77.2638 147.269Z" fill="white"/>
<path d="M3.40469 44.5777L1.58651 52.3783V52.4956L1.35191 54.1965L1.1173 56.8944L1 59.1818V61.176L1.1173 64.695L1.35191 67.8035L1.93842 71.7331L2.81818 75.6041L4.16716 80.1202L6.21994 85.3402L8.68328 90.2082L10.9707 94.1378L14.1378 98.2434L16.9531 101.704L19.4751 104.284L22.6422 107.1L25.868 109.622L29.563 112.026L33.0235 114.079L36.0733 115.604L39.8856 117.246L42.2317 118.067L45.6921 119.065L48.6246 119.768L51.8504 120.413L54.0205 120.648L55.3695 120.765L56.6012 120.883L58.1847 121H62.7009L66.7478 120.824L68.566 120.648L70.3255 120.413L71.1466 120.238L71.8504 120.12L72.8475 119.827L74.0205 119.592L75.6628 119.24L77.3636 118.83L78.3021 118.537L80.0616 118.009L81.5865 117.54L83.5806 116.777L85.5161 115.956L88.566 114.431L91.0293 113.082L93.0821 111.85L94.9589 110.56L97.8328 108.566L100.179 106.631L104.226 102.877L105.516 101.528L106.924 99.7683L108.449 98.0088L109.856 96.0147L111.147 94.2551L112.378 92.437L113.727 90.0909L115.018 87.5103L116.191 84.9883L117.246 82.5836L117.95 80.5308L118.478 78.8299L119.006 77.0704L119.71 74.607L119.886 73.9619L120.12 73.0235L120.296 71.6745L120.531 70.0909L120.824 68.4487L121 65.3402V60.9413V58.1847V55.7801L120.472 52.2023L119.768 48.3314L118.243 42.4076L116.249 37.1877L114.138 32.8475L111.205 27.8622L105.985 21.0587L101.117 16.1906L95.0176 11.3812L90.2669 8.39003L84.695 5.69208L78.7713 3.52199L74.4897 2.29032L69.5044 1.41056L64.2258 1H58.2434L54.0205 1.41056L48.39 2.29032L41 4.46041L35.1349 6.80645L29.5044 9.68035L23.8739 13.8446L17.7742 19.3578L15.2522 22.5249L12.085 26.5132L9.03519 31.2639L5.86804 38.0088L3.40469 44.5777Z" fill="#0148FF" stroke="white" stroke-width="2"/>
<path d="M34.6001 75.5474V29.4102H43.394L88.1879 98.7525H82.1421L42.2948 42.5142V75.5474H34.6001Z" fill="white"/>
<path d="M68.9512 58.8945V27.2263H77.1954V69.2685L68.9512 58.8945Z" fill="white"/>
</svg>
