<svg width="120" height="120" viewBox="0 0 120 120" fill="none" xmlns="http://www.w3.org/2000/svg">
<path d="M42.8932 38.2688H36H35.5769C35.3008 38.2688 35.0769 38.4926 35.0769 38.7688V91.0738C35.0769 91.2167 35.0158 91.3527 34.909 91.4476L34.4615 91.8451L32.1112 94.1941C32.0388 94.2664 31.946 94.3148 31.8452 94.3327L29.0032 94.8377C28.9501 94.8471 28.8959 94.8479 28.8425 94.84L25.2813 94.3127C25.2477 94.3077 25.2147 94.2994 25.1828 94.2877L20.0405 92.4066C20.0136 92.3968 19.9875 92.3846 19.9626 92.3703L8.86916 85.9777C8.71243 85.8874 8.6167 85.7194 8.61884 85.5386L9.22717 33.927C9.22938 33.7396 9.33613 33.5692 9.50375 33.4855L60.9994 7.76929C61.1445 7.69683 61.3158 7.69925 61.4588 7.77579L110.505 34.0272C110.668 34.1142 110.769 34.2837 110.769 34.4681V86.6175C110.769 86.806 110.663 86.9785 110.495 87.0636L64.3077 110.433L60.1683 112.271C60.0597 112.32 59.9374 112.328 59.8234 112.294L58.1982 111.813C58.1687 111.804 58.1401 111.793 58.1127 111.779L46.042 105.613C45.9172 105.549 45.7714 105.54 45.64 105.589L37.345 108.68C36.9417 108.83 36.904 109.386 37.2834 109.589L55.6045 119.406C55.6625 119.437 55.726 119.457 55.7915 119.463L61.2308 120H63.5863C63.6562 120 63.7253 119.985 63.7892 119.957L64.9231 119.453L73.2308 114.806L107.692 97.0387L117.687 91.9263C117.79 91.8738 117.871 91.7874 117.918 91.6817L119.958 87.0207C119.986 86.9575 120 86.8892 120 86.8202V31.6112C120 31.4972 119.961 31.3867 119.89 31.2979L118.505 29.5757C118.476 29.5398 118.443 29.5081 118.405 29.4815L113.846 26.2415L101.231 19.6811L66.4615 1.91344L61.314 0.0304311C61.2589 0.0103004 61.2008 0 61.1422 0H57.6336C57.5707 0 57.5084 0.0118532 57.45 0.0349383L54.7692 1.09339L50.4615 3.00683L2.8553 28.1095C2.79845 28.1395 2.74792 28.1801 2.70646 28.2292L0.923077 30.3417L0.0856496 31.5816C0.0298278 31.6643 0 31.7617 0 31.8615V32.8018V88.131C0 88.2354 0.0327049 88.3372 0.0935242 88.4221L2.08917 91.2081C2.13177 91.2676 2.1869 91.317 2.25067 91.3528L17.1975 99.7535C17.2196 99.7659 17.2427 99.7767 17.2665 99.7856L25.1564 102.751C25.2057 102.77 25.2576 102.78 25.3101 102.783L31.3263 103.05C31.365 103.052 31.4039 103.049 31.442 103.041L35.6103 102.248C35.6646 102.238 35.7168 102.218 35.7648 102.191L39.9177 99.8192C39.9721 99.7882 40.0201 99.7471 40.0594 99.6983L43.0158 96.0214C43.0562 95.9712 43.0865 95.9136 43.105 95.8518L44.2853 91.9196C44.3001 91.8702 44.3072 91.8188 44.3064 91.7673L43.3931 38.7602C43.3884 38.4874 43.1659 38.2688 42.8932 38.2688Z" fill="#0148FF"/>
<path d="M57.1843 68.0638H49.7308C49.4546 68.0638 49.2308 68.2876 49.2308 68.5638V71.5319C49.2308 71.5884 49.2403 71.6445 49.2591 71.6978L50.7437 75.9183C50.7606 75.9664 50.7848 76.0117 50.8154 76.0525L53.1729 79.194C53.2111 79.2449 53.2587 79.2881 53.3131 79.3211L59.0047 82.7807C59.0525 82.8098 59.1049 82.8306 59.1596 82.8423L68 84.738L74.7333 85.2818C74.7572 85.2838 74.7813 85.284 74.8052 85.2825L83.3846 84.738L86.4174 84.1992C86.4468 84.194 86.4756 84.1861 86.5035 84.1758L90.1538 82.8246L94.404 80.667C94.4422 80.6476 94.4778 80.6234 94.5098 80.595L97.7836 77.6866C97.825 77.6498 97.86 77.6063 97.8872 77.558L99.628 74.465C99.6702 74.3901 99.6923 74.3057 99.6923 74.2198V71.0706V67.0688C99.6923 67.0038 99.6797 66.9395 99.655 66.8793L98.4979 64.0523C98.4739 63.9937 98.4389 63.9401 98.395 63.8945L96.6443 62.08C96.625 62.0601 96.6042 62.0418 96.582 62.0254L92.994 59.3691C92.9471 59.3344 92.8944 59.3081 92.8385 59.2916L88.3077 57.9499L80.6154 56.3098L67.1289 54.676C67.0943 54.6718 67.0603 54.664 67.0274 54.6528L63.1331 53.3221C63.0958 53.3094 63.0601 53.2923 63.0268 53.2712L61.1552 52.0835C61.0107 51.9918 60.9231 51.8325 60.9231 51.6613V48.8424C60.9231 48.7222 60.9664 48.606 61.0451 48.5151L63.927 45.1869C63.9751 45.1313 64.0348 45.087 64.102 45.0572L66.98 43.7788C67.0439 43.7504 67.1131 43.7358 67.183 43.7358H81.1173C81.192 43.7358 81.2657 43.7525 81.3331 43.7847L85.1302 45.6011C85.1964 45.6328 85.2549 45.6786 85.3014 45.7354L87.6336 48.5844C87.6724 48.6317 87.7022 48.6858 87.7214 48.744L89.1173 52.9601C89.185 53.1648 89.3763 53.303 89.5919 53.303H97.859C98.1721 53.303 98.4082 53.0185 98.3504 52.7108L97.8462 50.0228L96.6424 45.745C96.6245 45.6818 96.5945 45.6226 96.5538 45.571L94.489 42.9506C94.4707 42.9274 94.4504 42.9058 94.4284 42.8862L91.435 40.227C91.4016 40.1973 91.3643 40.1722 91.3242 40.1524L85.903 37.4768C85.8653 37.4582 85.8253 37.4444 85.7841 37.4358L80.666 36.3659C80.6323 36.3589 80.5981 36.3554 80.5637 36.3554H73.5385L64.0683 36.8981C64.023 36.9007 63.9782 36.9095 63.9353 36.9242L60.038 38.2558C60.0127 38.2644 59.9881 38.2751 59.9645 38.2877L55.4827 40.6767C55.4181 40.7111 55.3619 40.7593 55.3179 40.8178L51.177 46.3359C51.112 46.4224 51.0769 46.5278 51.0769 46.636V53.2062C51.0769 53.2701 51.0892 53.3334 51.113 53.3927L52.5626 56.9986C52.5971 57.0844 52.6547 57.159 52.729 57.214L56.2549 59.8242C56.2899 59.8502 56.3282 59.8714 56.3688 59.8874L61.7964 62.0305C61.8295 62.0435 61.8638 62.053 61.8989 62.0588L70.1538 63.4169L83.3405 65.3239C83.3698 65.3282 83.3988 65.335 83.4269 65.3444L88.2104 66.938C88.2746 66.9594 88.3338 66.9936 88.3844 67.0385L89.9859 68.4613C90.0927 68.5562 90.1538 68.6922 90.1538 68.8351V72.2706C90.1538 72.3788 90.1187 72.4842 90.0538 72.5707L87.7945 75.5814C87.7282 75.6697 87.6346 75.7335 87.5283 75.7631L82.8349 77.0661C82.7913 77.0781 82.7463 77.0843 82.7011 77.0843H68.0681C68.0229 77.0843 67.9779 77.0781 67.9344 77.0661L63.1786 75.7458C63.1116 75.7271 63.0491 75.6947 62.9953 75.6506L59.1851 72.5261C59.1143 72.468 59.0609 72.3917 59.0305 72.3054L57.656 68.3979C57.5856 68.1977 57.3965 68.0638 57.1843 68.0638Z" fill="#0148FF"/>
</svg>
