<svg width="120" height="151" viewBox="0 0 120 151" fill="none" xmlns="http://www.w3.org/2000/svg">
<rect x="20" y="129.281" width="80" height="21.7192" rx="2" fill="#0148FF"/>
<path d="M40.448 136.805C41.448 136.805 42.228 137.121 42.788 137.753C43.348 138.377 43.628 139.269 43.628 140.429V145.349H41.684V140.489C41.684 139.817 41.524 139.313 41.204 138.977C40.892 138.633 40.456 138.461 39.896 138.461C39.304 138.461 38.828 138.645 38.468 139.013C38.116 139.373 37.94 139.909 37.94 140.621V145.349H35.996V136.949H37.88V137.969C38.168 137.585 38.528 137.297 38.96 137.105C39.392 136.905 39.888 136.805 40.448 136.805ZM48.4868 145.445C47.8068 145.445 47.1948 145.305 46.6508 145.025C46.1148 144.737 45.6948 144.341 45.3908 143.837C45.0868 143.333 44.9348 142.761 44.9348 142.121C44.9348 141.481 45.0868 140.909 45.3908 140.405C45.6948 139.901 46.1148 139.509 46.6508 139.229C47.1948 138.941 47.8068 138.797 48.4868 138.797C49.1668 138.797 49.7748 138.941 50.3108 139.229C50.8468 139.509 51.2668 139.901 51.5708 140.405C51.8748 140.909 52.0268 141.481 52.0268 142.121C52.0268 142.761 51.8748 143.333 51.5708 143.837C51.2668 144.341 50.8468 144.737 50.3108 145.025C49.7748 145.305 49.1668 145.445 48.4868 145.445ZM48.4868 143.909C48.9668 143.909 49.3588 143.749 49.6628 143.429C49.9748 143.101 50.1308 142.665 50.1308 142.121C50.1308 141.577 49.9748 141.145 49.6628 140.825C49.3588 140.497 48.9668 140.333 48.4868 140.333C48.0068 140.333 47.6108 140.497 47.2988 140.825C46.9868 141.145 46.8308 141.577 46.8308 142.121C46.8308 142.665 46.9868 143.101 47.2988 143.429C47.6108 143.749 48.0068 143.909 48.4868 143.909ZM59.8541 136.445V145.349H58.0661V144.605C57.6021 145.165 56.9301 145.445 56.0501 145.445C55.4421 145.445 54.8901 145.309 54.3941 145.037C53.9061 144.765 53.5221 144.377 53.2421 143.873C52.9621 143.369 52.8221 142.785 52.8221 142.121C52.8221 141.457 52.9621 140.873 53.2421 140.369C53.5221 139.865 53.9061 139.477 54.3941 139.205C54.8901 138.933 55.4421 138.797 56.0501 138.797C56.8741 138.797 57.5181 139.057 57.9821 139.577V136.445H59.8541ZM56.3741 143.909C56.8461 143.909 57.2381 143.749 57.5501 143.429C57.8621 143.101 58.0181 142.665 58.0181 142.121C58.0181 141.577 57.8621 141.145 57.5501 140.825C57.2381 140.497 56.8461 140.333 56.3741 140.333C55.8941 140.333 55.4981 140.497 55.1861 140.825C54.8741 141.145 54.7181 141.577 54.7181 142.121C54.7181 142.665 54.8741 143.101 55.1861 143.429C55.4981 143.749 55.8941 143.909 56.3741 143.909ZM64.8387 143.945C65.1747 143.945 65.4707 143.897 65.7267 143.801C65.9907 143.697 66.2347 143.537 66.4587 143.321L67.4547 144.401C66.8467 145.097 65.9587 145.445 64.7907 145.445C64.0627 145.445 63.4187 145.305 62.8587 145.025C62.2987 144.737 61.8667 144.341 61.5627 143.837C61.2587 143.333 61.1067 142.761 61.1067 142.121C61.1067 141.489 61.2547 140.921 61.5507 140.417C61.8547 139.905 62.2667 139.509 62.7867 139.229C63.3147 138.941 63.9067 138.797 64.5627 138.797C65.1787 138.797 65.7387 138.929 66.2427 139.193C66.7467 139.449 67.1467 139.825 67.4427 140.321C67.7467 140.809 67.8987 141.389 67.8987 142.061L63.1227 142.985C63.2587 143.305 63.4707 143.545 63.7587 143.705C64.0547 143.865 64.4147 143.945 64.8387 143.945ZM64.5627 140.213C64.0907 140.213 63.7067 140.365 63.4107 140.669C63.1147 140.973 62.9587 141.393 62.9427 141.929L66.0867 141.317C65.9987 140.981 65.8187 140.713 65.5467 140.513C65.2747 140.313 64.9467 140.213 64.5627 140.213ZM70.813 146.693C70.245 146.693 69.725 146.585 69.253 146.369C68.789 146.161 68.405 145.861 68.101 145.469L69.157 144.173C69.613 144.789 70.129 145.097 70.705 145.097C71.505 145.097 71.905 144.633 71.905 143.705V138.509H68.965V136.949H73.849V143.597C73.849 144.629 73.593 145.401 73.081 145.913C72.569 146.433 71.813 146.693 70.813 146.693ZM78.5294 145.493C77.8654 145.493 77.2214 145.405 76.5974 145.229C75.9814 145.045 75.4854 144.809 75.1094 144.521L75.7694 143.057C76.1294 143.321 76.5574 143.533 77.0534 143.693C77.5494 143.853 78.0454 143.933 78.5414 143.933C79.0934 143.933 79.5014 143.853 79.7654 143.693C80.0294 143.525 80.1614 143.305 80.1614 143.033C80.1614 142.833 80.0814 142.669 79.9214 142.541C79.7694 142.405 79.5694 142.297 79.3214 142.217C79.0814 142.137 78.7534 142.049 78.3374 141.953C77.6974 141.801 77.1734 141.649 76.7654 141.497C76.3574 141.345 76.0054 141.101 75.7094 140.765C75.4214 140.429 75.2774 139.981 75.2774 139.421C75.2774 138.933 75.4094 138.493 75.6734 138.101C75.9374 137.701 76.3334 137.385 76.8614 137.153C77.3974 136.921 78.0494 136.805 78.8174 136.805C79.3534 136.805 79.8774 136.869 80.3894 136.997C80.9014 137.125 81.3494 137.309 81.7334 137.549L81.1334 139.025C80.3574 138.585 79.5814 138.365 78.8054 138.365C78.2614 138.365 77.8574 138.453 77.5934 138.629C77.3374 138.805 77.2094 139.037 77.2094 139.325C77.2094 139.613 77.3574 139.829 77.6534 139.973C77.9574 140.109 78.4174 140.245 79.0334 140.381C79.6734 140.533 80.1974 140.685 80.6054 140.837C81.0134 140.989 81.3614 141.229 81.6494 141.557C81.9454 141.885 82.0934 142.329 82.0934 142.889C82.0934 143.369 81.9574 143.809 81.6854 144.209C81.4214 144.601 81.0214 144.913 80.4854 145.145C79.9494 145.377 79.2974 145.493 78.5294 145.493Z" fill="white"/>
<path d="M42.8932 38.2688H36H35.5769C35.3008 38.2688 35.0769 38.4926 35.0769 38.7688V91.0738C35.0769 91.2167 35.0158 91.3527 34.909 91.4476L34.4615 91.8451L32.1112 94.1941C32.0388 94.2664 31.946 94.3148 31.8452 94.3327L29.0032 94.8377C28.9501 94.8471 28.8959 94.8479 28.8425 94.84L25.2813 94.3127C25.2477 94.3077 25.2147 94.2994 25.1828 94.2877L20.0405 92.4066C20.0136 92.3968 19.9875 92.3846 19.9626 92.3703L8.86916 85.9777C8.71243 85.8874 8.6167 85.7194 8.61884 85.5386L9.22717 33.927C9.22938 33.7396 9.33613 33.5692 9.50375 33.4855L60.9994 7.76929C61.1445 7.69683 61.3158 7.69925 61.4588 7.77579L110.505 34.0272C110.668 34.1142 110.769 34.2837 110.769 34.4681V86.6175C110.769 86.806 110.663 86.9785 110.495 87.0636L64.3077 110.433L60.1683 112.271C60.0597 112.32 59.9374 112.328 59.8234 112.294L58.1982 111.813C58.1687 111.804 58.1401 111.793 58.1127 111.779L46.042 105.613C45.9172 105.549 45.7714 105.54 45.64 105.589L37.345 108.68C36.9417 108.83 36.904 109.386 37.2834 109.589L55.6045 119.406C55.6625 119.437 55.726 119.457 55.7915 119.463L61.2308 120H63.5863C63.6562 120 63.7253 119.985 63.7892 119.957L64.9231 119.453L73.2308 114.806L107.692 97.0387L117.687 91.9263C117.79 91.8738 117.871 91.7874 117.918 91.6817L119.958 87.0207C119.986 86.9575 120 86.8892 120 86.8202V31.6112C120 31.4972 119.961 31.3867 119.89 31.2979L118.505 29.5757C118.476 29.5398 118.443 29.5081 118.405 29.4815L113.846 26.2415L101.231 19.6811L66.4615 1.91344L61.314 0.0304311C61.2589 0.0103004 61.2008 0 61.1422 0H57.6336C57.5707 0 57.5084 0.0118532 57.45 0.0349383L54.7692 1.09339L50.4615 3.00683L2.8553 28.1095C2.79845 28.1395 2.74792 28.1801 2.70646 28.2292L0.923077 30.3417L0.0856496 31.5816C0.0298278 31.6643 0 31.7617 0 31.8615V32.8018V88.131C0 88.2354 0.0327049 88.3372 0.0935242 88.4221L2.08917 91.2081C2.13177 91.2676 2.1869 91.317 2.25067 91.3528L17.1975 99.7535C17.2196 99.7659 17.2427 99.7767 17.2665 99.7856L25.1564 102.751C25.2057 102.77 25.2576 102.78 25.3101 102.783L31.3263 103.05C31.365 103.052 31.4039 103.049 31.442 103.041L35.6103 102.248C35.6646 102.238 35.7168 102.218 35.7648 102.191L39.9177 99.8192C39.9721 99.7882 40.0201 99.7471 40.0594 99.6983L43.0158 96.0214C43.0562 95.9712 43.0865 95.9136 43.105 95.8518L44.2853 91.9196C44.3001 91.8702 44.3072 91.8188 44.3064 91.7673L43.3931 38.7602C43.3884 38.4874 43.1659 38.2688 42.8932 38.2688Z" fill="#0148FF"/>
<path d="M57.1843 68.0638H49.7308C49.4546 68.0638 49.2308 68.2876 49.2308 68.5638V71.5319C49.2308 71.5884 49.2403 71.6445 49.2591 71.6978L50.7437 75.9183C50.7606 75.9664 50.7848 76.0117 50.8154 76.0525L53.1729 79.194C53.2111 79.2449 53.2587 79.2881 53.3131 79.3211L59.0047 82.7807C59.0525 82.8098 59.1049 82.8306 59.1596 82.8423L68 84.738L74.7333 85.2818C74.7572 85.2838 74.7813 85.284 74.8052 85.2825L83.3846 84.738L86.4174 84.1992C86.4468 84.194 86.4756 84.1861 86.5035 84.1758L90.1538 82.8246L94.404 80.667C94.4422 80.6476 94.4778 80.6234 94.5098 80.595L97.7836 77.6866C97.825 77.6498 97.86 77.6063 97.8872 77.558L99.628 74.465C99.6702 74.3901 99.6923 74.3057 99.6923 74.2198V71.0706V67.0688C99.6923 67.0038 99.6797 66.9395 99.655 66.8793L98.4979 64.0523C98.4739 63.9937 98.4389 63.9401 98.395 63.8945L96.6443 62.08C96.625 62.0601 96.6042 62.0418 96.582 62.0254L92.994 59.3691C92.9471 59.3344 92.8944 59.3081 92.8385 59.2916L88.3077 57.9499L80.6154 56.3098L67.1289 54.676C67.0943 54.6718 67.0603 54.664 67.0274 54.6528L63.1331 53.3221C63.0958 53.3094 63.0601 53.2923 63.0268 53.2712L61.1552 52.0835C61.0107 51.9918 60.9231 51.8325 60.9231 51.6613V48.8424C60.9231 48.7222 60.9664 48.606 61.0451 48.5151L63.927 45.1869C63.9751 45.1313 64.0348 45.087 64.102 45.0572L66.98 43.7788C67.0439 43.7504 67.1131 43.7358 67.183 43.7358H81.1173C81.192 43.7358 81.2657 43.7525 81.3331 43.7847L85.1302 45.6011C85.1964 45.6328 85.2549 45.6786 85.3014 45.7354L87.6336 48.5844C87.6724 48.6317 87.7022 48.6858 87.7214 48.744L89.1173 52.9601C89.185 53.1648 89.3763 53.303 89.5919 53.303H97.859C98.1721 53.303 98.4082 53.0185 98.3504 52.7108L97.8462 50.0228L96.6424 45.745C96.6245 45.6818 96.5945 45.6226 96.5538 45.571L94.489 42.9506C94.4707 42.9274 94.4504 42.9058 94.4284 42.8862L91.435 40.227C91.4016 40.1973 91.3643 40.1722 91.3242 40.1524L85.903 37.4768C85.8653 37.4582 85.8253 37.4444 85.7841 37.4358L80.666 36.3659C80.6323 36.3589 80.5981 36.3554 80.5637 36.3554H73.5385L64.0683 36.8981C64.023 36.9007 63.9782 36.9095 63.9353 36.9242L60.038 38.2558C60.0127 38.2644 59.9881 38.2751 59.9645 38.2877L55.4827 40.6767C55.4181 40.7111 55.3619 40.7593 55.3179 40.8178L51.177 46.3359C51.112 46.4224 51.0769 46.5278 51.0769 46.636V53.2062C51.0769 53.2701 51.0892 53.3334 51.113 53.3927L52.5626 56.9986C52.5971 57.0844 52.6547 57.159 52.729 57.214L56.2549 59.8242C56.2899 59.8502 56.3282 59.8714 56.3688 59.8874L61.7964 62.0305C61.8295 62.0435 61.8638 62.053 61.8989 62.0588L70.1538 63.4169L83.3405 65.3239C83.3698 65.3282 83.3988 65.335 83.4269 65.3444L88.2104 66.938C88.2746 66.9594 88.3338 66.9936 88.3844 67.0385L89.9859 68.4613C90.0927 68.5562 90.1538 68.6922 90.1538 68.8351V72.2706C90.1538 72.3788 90.1187 72.4842 90.0538 72.5707L87.7945 75.5814C87.7282 75.6697 87.6346 75.7335 87.5283 75.7631L82.8349 77.0661C82.7913 77.0781 82.7463 77.0843 82.7011 77.0843H68.0681C68.0229 77.0843 67.9779 77.0781 67.9344 77.0661L63.1786 75.7458C63.1116 75.7271 63.0491 75.6947 62.9953 75.6506L59.1851 72.5261C59.1143 72.468 59.0609 72.3917 59.0305 72.3054L57.656 68.3979C57.5856 68.1977 57.3965 68.0638 57.1843 68.0638Z" fill="#0148FF"/>
</svg>
