<svg width="120" height="151" viewBox="0 0 120 151" fill="none" xmlns="http://www.w3.org/2000/svg">
<rect x="20" y="129.574" width="80" height="21.4257" rx="2" fill="#0148FF"/>
<path d="M41.348 145.615L39.728 143.275H39.632H37.94V145.615H35.996V137.215H39.632C40.376 137.215 41.02 137.339 41.564 137.587C42.116 137.835 42.54 138.187 42.836 138.643C43.132 139.099 43.28 139.639 43.28 140.263C43.28 140.887 43.128 141.427 42.824 141.883C42.528 142.331 42.104 142.675 41.552 142.915L43.436 145.615H41.348ZM41.312 140.263C41.312 139.791 41.16 139.431 40.856 139.183C40.552 138.927 40.108 138.799 39.524 138.799H37.94V141.727H39.524C40.108 141.727 40.552 141.599 40.856 141.343C41.16 141.087 41.312 140.727 41.312 140.263ZM47.9402 144.211C48.2762 144.211 48.5722 144.163 48.8282 144.067C49.0922 143.963 49.3362 143.803 49.5602 143.587L50.5562 144.667C49.9482 145.363 49.0602 145.711 47.8922 145.711C47.1642 145.711 46.5202 145.571 45.9602 145.291C45.4002 145.003 44.9682 144.607 44.6642 144.103C44.3602 143.599 44.2082 143.027 44.2082 142.387C44.2082 141.755 44.3562 141.187 44.6522 140.683C44.9562 140.171 45.3682 139.775 45.8882 139.495C46.4162 139.207 47.0082 139.063 47.6642 139.063C48.2802 139.063 48.8402 139.195 49.3442 139.459C49.8482 139.715 50.2482 140.091 50.5442 140.587C50.8482 141.075 51.0002 141.655 51.0002 142.327L46.2242 143.251C46.3602 143.571 46.5722 143.811 46.8602 143.971C47.1562 144.131 47.5162 144.211 47.9402 144.211ZM47.6642 140.479C47.1922 140.479 46.8082 140.631 46.5122 140.935C46.2162 141.239 46.0602 141.659 46.0442 142.195L49.1882 141.583C49.1002 141.247 48.9202 140.979 48.6482 140.779C48.3762 140.579 48.0482 140.479 47.6642 140.479ZM58.8105 139.159V145.615H57.0225V144.871C56.5585 145.431 55.8865 145.711 55.0065 145.711C54.3985 145.711 53.8465 145.575 53.3505 145.303C52.8625 145.031 52.4785 144.643 52.1985 144.139C51.9185 143.635 51.7785 143.051 51.7785 142.387C51.7785 141.723 51.9185 141.139 52.1985 140.635C52.4785 140.131 52.8625 139.743 53.3505 139.471C53.8465 139.199 54.3985 139.063 55.0065 139.063C55.8305 139.063 56.4745 139.323 56.9385 139.843V139.159H58.8105ZM55.3305 144.175C55.8025 144.175 56.1945 144.015 56.5065 143.695C56.8185 143.367 56.9745 142.931 56.9745 142.387C56.9745 141.843 56.8185 141.411 56.5065 141.091C56.1945 140.763 55.8025 140.599 55.3305 140.599C54.8505 140.599 54.4545 140.763 54.1425 141.091C53.8305 141.411 53.6745 141.843 53.6745 142.387C53.6745 142.931 53.8305 143.367 54.1425 143.695C54.4545 144.015 54.8505 144.175 55.3305 144.175ZM63.6637 145.711C62.9757 145.711 62.3557 145.571 61.8037 145.291C61.2597 145.003 60.8317 144.607 60.5197 144.103C60.2157 143.599 60.0637 143.027 60.0637 142.387C60.0637 141.747 60.2157 141.175 60.5197 140.671C60.8317 140.167 61.2597 139.775 61.8037 139.495C62.3557 139.207 62.9757 139.063 63.6637 139.063C64.3437 139.063 64.9357 139.207 65.4397 139.495C65.9517 139.775 66.3237 140.179 66.5557 140.707L65.1037 141.487C64.7677 140.895 64.2837 140.599 63.6517 140.599C63.1637 140.599 62.7597 140.759 62.4397 141.079C62.1197 141.399 61.9597 141.835 61.9597 142.387C61.9597 142.939 62.1197 143.375 62.4397 143.695C62.7597 144.015 63.1637 144.175 63.6517 144.175C64.2917 144.175 64.7757 143.879 65.1037 143.287L66.5557 144.079C66.3237 144.591 65.9517 144.991 65.4397 145.279C64.9357 145.567 64.3437 145.711 63.6637 145.711ZM71.4747 145.303C71.2907 145.439 71.0627 145.543 70.7907 145.615C70.5267 145.679 70.2507 145.711 69.9627 145.711C69.1867 145.711 68.5907 145.515 68.1747 145.123C67.7587 144.731 67.5507 144.155 67.5507 143.395V137.731H69.4227V139.303H71.0187V140.743H69.4227V143.371C69.4227 143.643 69.4907 143.855 69.6267 144.007C69.7627 144.151 69.9587 144.223 70.2147 144.223C70.5027 144.223 70.7587 144.143 70.9827 143.983L71.4747 145.303ZM74.188 146.959C73.62 146.959 73.1 146.851 72.628 146.635C72.164 146.427 71.78 146.127 71.476 145.735L72.532 144.439C72.988 145.055 73.504 145.363 74.08 145.363C74.88 145.363 75.28 144.899 75.28 143.971V138.775H72.34V137.215H77.224V143.863C77.224 144.895 76.968 145.667 76.456 146.179C75.944 146.699 75.188 146.959 74.188 146.959ZM81.9044 145.759C81.2404 145.759 80.5964 145.671 79.9724 145.495C79.3564 145.311 78.8604 145.075 78.4844 144.787L79.1444 143.323C79.5044 143.587 79.9324 143.799 80.4284 143.959C80.9244 144.119 81.4204 144.199 81.9164 144.199C82.4684 144.199 82.8764 144.119 83.1404 143.959C83.4044 143.791 83.5364 143.571 83.5364 143.299C83.5364 143.099 83.4564 142.935 83.2964 142.807C83.1444 142.671 82.9444 142.563 82.6964 142.483C82.4564 142.403 82.1284 142.315 81.7124 142.219C81.0724 142.067 80.5484 141.915 80.1404 141.763C79.7324 141.611 79.3804 141.367 79.0844 141.031C78.7964 140.695 78.6524 140.247 78.6524 139.687C78.6524 139.199 78.7844 138.759 79.0484 138.367C79.3124 137.967 79.7084 137.651 80.2364 137.419C80.7724 137.187 81.4244 137.071 82.1924 137.071C82.7284 137.071 83.2524 137.135 83.7644 137.263C84.2764 137.391 84.7244 137.575 85.1084 137.815L84.5084 139.291C83.7324 138.851 82.9564 138.631 82.1804 138.631C81.6364 138.631 81.2324 138.719 80.9684 138.895C80.7124 139.071 80.5844 139.303 80.5844 139.591C80.5844 139.879 80.7324 140.095 81.0284 140.239C81.3324 140.375 81.7924 140.511 82.4084 140.647C83.0484 140.799 83.5724 140.951 83.9804 141.103C84.3884 141.255 84.7364 141.495 85.0244 141.823C85.3204 142.151 85.4684 142.595 85.4684 143.155C85.4684 143.635 85.3324 144.075 85.0604 144.475C84.7964 144.867 84.3964 145.179 83.8604 145.411C83.3244 145.643 82.6724 145.759 81.9044 145.759Z" fill="white"/>
<path d="M30.6283 28.4284V28.4604L30.6323 28.4921L31.5898 35.946L31.5926 35.9681L31.5974 35.9898L33.8953 46.4253L33.9025 46.458L33.914 46.4894L38.8928 60.1194L38.8983 60.1343L38.9047 60.1489L42.926 69.3065L42.9374 69.3323L42.9515 69.3567L50.9943 83.1997L51.0074 83.2223L51.0229 83.2435L51.5117 83.9126C56.1729 90.2929 61.3424 96.2858 66.9696 101.833L66.9933 101.856L67.02 101.876L73.5308 106.775L73.5583 106.795L73.5884 106.812L74.2559 107.183C76.1368 108.229 78.1348 109.049 80.2082 109.625L80.2294 109.631L80.251 109.635L81.5159 109.87C82.2705 110.01 83.0477 109.975 83.7869 109.77C84.1695 109.663 84.5385 109.512 84.8855 109.319C85.6576 108.89 86.3031 108.265 86.7573 107.507L87.3148 106.577C87.8284 105.72 88.1972 104.785 88.4063 103.808L88.6926 102.471C88.9477 101.279 89.0764 100.063 89.0764 98.8445V92.3191V92.2878L89.0725 92.2567L88.6162 88.6318C88.0244 83.9313 87.0839 79.2813 85.8023 74.7204L85.7995 74.7103L85.7962 74.7003L81.9664 62.987L81.9576 62.9603L81.946 62.9347L75.6267 49.0917L75.6185 49.0739L75.609 49.0568C71.8999 42.3712 67.6805 35.9817 62.9886 29.945L60.2471 26.4178L60.2284 26.3938L60.207 26.3722L54.3472 20.476C52.877 18.9966 51.3036 17.6236 49.6388 16.3672L48.4871 15.498C47.3082 14.6084 46.0576 13.8181 44.7479 13.1354L42.091 11.7503C41.0196 11.1918 39.8569 10.8298 38.6578 10.6817L38.6273 10.6779H38.5965H36.8513C36.5804 10.6779 36.3101 10.7027 36.0438 10.7521L35.9522 10.7691C35.4223 10.8673 34.9178 11.0722 34.4696 11.3713C34.1935 11.5556 33.9416 11.7736 33.7197 12.0204L33.4495 12.3208C32.8962 12.9363 32.4532 13.6426 32.14 14.4087L31.9193 14.9488C31.7122 15.4556 31.5448 15.9777 31.4187 16.5105L31.2156 17.3689C30.8254 19.0182 30.6283 20.7073 30.6283 22.4022V28.4284ZM36.1344 11.7523L36.226 11.7354C36.4323 11.6971 36.6416 11.6779 36.8513 11.6779H38.5653C39.6351 11.8137 40.6723 12.1384 41.6287 12.637L44.2857 14.0221C45.5462 14.6793 46.75 15.4399 47.8847 16.2962L49.0364 17.1654C50.6634 18.3932 52.2011 19.7351 53.6379 21.1809L59.4762 27.0555L62.1991 30.5587C66.8554 36.5496 71.0432 42.8904 74.7251 49.5248L81.0246 63.3245L84.8425 75.0011C86.1092 79.511 87.0389 84.1089 87.624 88.7566L88.0764 92.3505V98.8445C88.0764 99.993 87.9552 101.138 87.7147 102.261L87.4284 103.599C87.2423 104.468 86.9142 105.3 86.4571 106.063L85.8996 106.993C85.5356 107.6 85.0183 108.101 84.3996 108.445C84.1215 108.6 83.8257 108.721 83.5191 108.806C82.9262 108.971 82.303 108.999 81.6981 108.887L80.455 108.656C78.4651 108.101 76.5475 107.313 74.7419 106.309L74.1045 105.955L67.6479 101.097C62.0683 95.5947 56.9421 89.6505 52.3192 83.3227L51.8458 82.6747L43.8303 68.8787L39.8267 59.7613L34.8648 46.1776L32.5788 35.7965L31.6283 28.3964V22.4022C31.6283 20.7849 31.8164 19.173 32.1888 17.5992L32.3919 16.7408C32.506 16.2585 32.6575 15.7859 32.845 15.3271L33.0657 14.787C33.3353 14.1274 33.7167 13.5193 34.1932 12.9894L34.4633 12.689C34.6294 12.5043 34.818 12.341 35.0246 12.2032C35.3602 11.9792 35.7378 11.8259 36.1344 11.7523ZM41.2704 6.73852L41.2908 6.74735L41.312 6.75433C45.9339 8.2825 50.2263 10.6681 53.9646 13.7862L55.3596 14.9498C57.7282 16.9255 59.9021 19.1236 61.8514 21.5139L66.3421 27.0204L70.418 33.2436C75.2017 40.5477 79.4531 48.1868 83.1392 56.1017L86.2171 63.6322C87.9795 67.9444 89.4022 72.3876 90.4724 76.9214L91.1321 79.7167C92.2826 84.5912 92.8637 89.5827 92.8637 94.5912V100.327C92.8637 102.038 92.6451 103.741 92.213 105.396L91.6094 107.708C91.3275 108.788 90.831 109.801 90.1497 110.685C89.4022 111.655 88.4497 112.447 87.3603 113.007L86.6469 113.373L84.9418 114.042C83.991 114.415 82.9786 114.607 81.9572 114.607C81.1871 114.607 80.4208 114.498 79.6812 114.283L78.1511 113.839C77.0543 113.521 75.9877 113.107 74.9639 112.601L71.4025 110.84L67.0546 107.897C63.1385 104.382 59.5558 100.512 56.3523 96.3368L48.9677 86.7125L41.9054 75.0371L39.3718 70.1367C35.2259 62.1178 31.9825 53.6638 29.7013 44.9296L27.3691 32.7714C26.8904 30.276 26.6494 27.7407 26.6494 25.1997V21.5229C26.6494 18.9704 27.124 16.4401 28.0491 14.0611L28.8875 11.9048C29.384 10.6278 30.1443 9.46983 31.1187 8.50656L31.3347 8.29305C32.3739 7.26576 33.6583 6.52106 35.0661 6.12963C36.9553 5.60438 38.9674 5.74245 40.7671 6.52082L41.2704 6.73852Z" stroke="#0148FF"/>
<path d="M64.3696 20.8657L64.3498 20.8829L64.3318 20.9022C59.6694 25.8679 55.3464 31.1934 51.4003 36.8328L49.1812 40.0041L49.1708 40.0191L49.1612 40.0348L44.0409 48.4868L44.0244 48.514L44.011 48.543L37.2529 63.2108L37.2409 63.237L37.2315 63.2642L37.0578 63.7699C34.3515 71.6494 32.2348 79.7261 30.7289 87.9191L30.7228 87.9522L30.7207 87.9856L30.1618 96.7056L30.1597 96.7388L30.1615 96.7718L30.2018 97.5187C30.3304 99.9026 30.6909 102.254 31.2773 104.534L31.2821 104.552L31.2883 104.571L31.745 105.927C32.0042 106.696 32.4021 107.396 32.9163 107.987L32.9608 108.039C33.2078 108.323 33.483 108.576 33.7816 108.796C34.518 109.337 35.3799 109.655 36.2836 109.72L37.0526 109.775C38.0517 109.846 39.0629 109.718 40.0358 109.395L41.0271 109.066C42.1174 108.704 43.1686 108.201 44.1569 107.566L46.7786 105.883C48.4036 104.839 49.9612 103.672 51.4389 102.389L52.7556 101.246C55.5149 98.8513 58.0897 96.2132 60.4517 93.3611L61.2797 92.3613L61.2875 92.3518L61.295 92.342L68.5011 82.7966L68.5206 82.7708L68.5371 82.7427L76.1569 69.7348L76.1681 69.7157L76.1778 69.6957C79.5297 62.7794 82.3696 55.6053 84.6694 48.2439L86.1281 43.5748L86.1376 43.5442L86.1437 43.5127L88.4242 31.72L88.431 31.6847L88.4333 31.649L88.7415 26.9368C88.851 25.2625 88.8419 23.5874 88.7142 21.9264L88.4755 18.8207C88.3727 17.4828 88.0757 16.1803 87.5952 14.9608L87.5855 14.9361L87.5734 14.9128L86.6954 13.2214C86.5667 12.9736 86.4199 12.738 86.2561 12.5168L86.1596 12.3864C85.846 11.9627 85.4616 11.6075 85.0249 11.3379C84.7328 11.1576 84.4199 11.0172 84.0932 10.9198L83.8031 10.8334C83.0172 10.5992 82.1917 10.5248 81.3674 10.614L80.9687 10.6571C80.4443 10.7138 79.9235 10.8204 79.4123 10.9754L78.7109 11.1882C77.208 11.6441 75.7597 12.3159 74.4057 13.1853L72.1091 14.66C70.5211 15.6796 69.0003 16.8231 67.5595 18.0809L64.3696 20.8657ZM85.4004 13.0587L85.4969 13.189C85.63 13.3688 85.7493 13.5603 85.8539 13.7617L86.7197 15.4295C87.1558 16.5437 87.4256 17.7327 87.5195 18.9539L87.7581 22.0596C87.8817 23.6678 87.8906 25.2897 87.7846 26.9109L87.4787 31.5873L85.2112 43.3134L83.762 47.952C81.4813 55.2522 78.6655 62.367 75.3424 69.2264L67.7502 82.1871L60.5709 91.6969L59.7508 92.6872C57.4263 95.4941 54.8923 98.0902 52.1769 100.447L50.8602 101.59C49.42 102.84 47.9018 103.978 46.3179 104.995L43.6962 106.679C42.777 107.269 41.7993 107.737 40.7851 108.074L39.7938 108.403C38.9347 108.688 38.0418 108.801 37.1596 108.738L36.3906 108.683C35.6516 108.63 34.9467 108.37 34.3445 107.927C34.1003 107.748 33.8753 107.54 33.6733 107.308L33.6288 107.257C33.1982 106.762 32.8651 106.176 32.6481 105.531L32.1975 104.194C31.6318 101.989 31.2839 99.7158 31.1595 97.4108L31.121 96.6969L31.6756 88.0436C33.1708 79.9178 35.2709 71.9075 37.9552 64.0923L38.1195 63.614L44.8522 49.0013L49.9466 40.5922L52.1552 37.4359C56.0662 31.8467 60.3502 26.5681 64.9702 21.6456L68.1405 18.8781C69.5432 17.6535 71.0238 16.5402 72.5699 15.5475L74.8665 14.0729C76.1444 13.2523 77.5114 12.6182 78.9299 12.1879L79.6313 11.9751C80.0876 11.8367 80.5524 11.7416 81.0205 11.691L81.4192 11.6479C82.1267 11.5713 82.8351 11.6351 83.5096 11.8361L83.7997 11.9226C84.0528 11.998 84.2951 12.1067 84.5214 12.2465C84.8597 12.4553 85.1575 12.7305 85.4004 13.0587ZM91.9287 15.6002L91.9315 15.6203L91.9357 15.6399C93.0605 20.8733 93.3354 26.319 92.7483 31.7383L92.6093 33.0211C92.2354 36.4728 91.5615 39.8933 90.5967 43.2368L88.6718 49.9073L85.7612 57.2017C82.5359 65.2844 78.7476 73.1125 74.4301 80.6154L69.9812 87.5378C67.5914 91.2562 64.9118 94.7531 61.9737 97.9875L60.003 100.157C56.8225 103.658 53.2387 106.699 49.349 109.197L44.9915 111.995C43.5999 112.888 42.1027 113.558 40.549 113.983L38.7375 114.478C37.6357 114.78 36.4973 114.818 35.4028 114.59C34.345 114.37 33.3528 113.906 32.4919 113.23L31.6568 112.574L30.3053 111.288C29.5118 110.533 28.8425 109.638 28.3231 108.637C27.9336 107.887 27.6319 107.084 27.4246 106.245L27.0168 104.597C26.7088 103.351 26.4924 102.077 26.3696 100.786L25.9658 96.5404L26.084 90.8736C26.8634 85.3425 28.1105 79.8779 29.8094 74.5495L33.5365 62.8602L39.0953 50.2241L41.8069 45.022C45.8632 37.2402 50.7729 29.9897 56.4235 23.4365L64.7237 15.1124C66.4199 13.4114 68.2764 11.9106 70.2591 10.6374L72.8715 8.96001C74.9944 7.59691 77.3421 6.73042 79.7559 6.41911L81.3833 6.20923C82.8095 6.02529 84.2412 6.18531 85.5748 6.67773C86.9846 7.19828 88.2465 8.07613 89.2589 9.24058L89.3372 9.33069C90.6743 10.8685 91.5441 12.8207 91.8377 14.9428L91.9287 15.6002Z" stroke="#0148FF"/>
<path d="M92.9846 44.9544L92.9613 44.944L92.9373 44.9363C86.7393 42.9285 80.4308 41.4277 74.0664 40.4467L70.4874 39.895L70.4705 39.8924L70.4535 39.8911L61.3118 39.1854L61.2823 39.1832L61.2531 39.1848L46.4522 40.0096L46.4258 40.0111L46.3999 40.0157L45.9193 40.1013C38.4304 41.4344 31.0828 43.4341 23.9499 46.0802L23.9211 46.0909L23.894 46.1056L16.8243 49.9273L16.7974 49.9418L16.7726 49.96L16.2112 50.3723C14.4192 51.6882 12.7685 53.211 11.2865 54.9156L11.2743 54.9296L11.2632 54.9447L10.4357 56.0626C9.96621 56.6968 9.62 57.4301 9.41653 58.2212L9.39891 58.2897C9.30119 58.6696 9.24111 59.0615 9.21966 59.4588C9.1668 60.4383 9.34996 61.4277 9.75132 62.3304L10.0929 63.0987C10.5366 64.0968 11.1425 65.0064 11.8802 65.782L12.6319 66.5724C13.4587 67.4417 14.3766 68.2023 15.3649 68.8369L17.9866 70.5202C19.6116 71.5637 21.2997 72.48 23.0372 73.262L24.5855 73.9587C27.8301 75.4188 31.1717 76.5798 34.5737 77.4287L35.7662 77.7262L35.7775 77.729L35.7889 77.7313L46.8249 79.8992L46.8548 79.905L46.8849 79.9069L60.824 80.7419L60.8445 80.7432L60.8649 80.7425C67.9266 80.5128 74.933 79.6609 81.8151 78.1952L86.1803 77.2656L86.2089 77.2595L86.2365 77.2496L96.5597 73.5497L96.5906 73.5386L96.6195 73.523L100.443 71.4637C101.802 70.732 103.101 69.8857 104.331 68.9323L106.63 67.1495C107.62 66.3815 108.486 65.4442 109.196 64.3717L109.21 64.35L109.222 64.3267L110.1 62.6353C110.229 62.3875 110.339 62.1283 110.429 61.86L110.482 61.7018C110.656 61.1879 110.74 60.6401 110.731 60.0847C110.726 59.7131 110.679 59.3416 110.591 58.9782L110.514 58.6556C110.303 57.7816 109.948 56.9493 109.466 56.2L109.234 55.8375C108.927 55.3609 108.584 54.9125 108.207 54.4976L107.691 53.9285C106.585 52.7089 105.337 51.6499 103.983 50.7805L101.687 49.3059C100.099 48.2862 98.4479 47.3933 96.7481 46.6345L92.9846 44.9544ZM109.579 61.3067L109.526 61.4648C109.453 61.6829 109.363 61.8936 109.259 62.095L108.393 63.7628C107.743 64.7399 106.952 65.5943 106.048 66.2953L103.749 68.078C102.559 69.0012 101.3 69.8206 99.9847 70.5291L96.1903 72.5728L85.9254 76.2518L81.5888 77.1753C74.7638 78.6288 67.8156 79.4742 60.8126 79.7032L46.924 78.8712L35.9292 76.7114L34.748 76.4166C31.4 75.5812 28.1114 74.4387 24.9184 73.0018L23.3702 72.305C21.6766 71.5429 20.0312 70.6497 18.4473 69.6327L15.8257 67.9493C14.9064 67.3591 14.0527 66.6517 13.2837 65.8432L12.532 65.0528C11.8805 64.3679 11.3456 63.5647 10.9537 62.6833L10.6122 61.9151C10.2839 61.1768 10.1342 60.3678 10.1774 59.5667C10.1949 59.2418 10.2441 58.9213 10.324 58.6106L10.3416 58.5421C10.512 57.8798 10.8018 57.2659 11.1949 56.7349L12.0112 55.6321C13.445 53.9849 15.0414 52.5131 16.7741 51.2408L17.3107 50.8467L24.3263 47.0543C31.4014 44.4315 38.6892 42.4491 46.1169 41.1268L46.5716 41.0459L61.3168 40.2241L70.4121 40.9262L73.9742 41.4753C80.282 42.4475 86.5344 43.9344 92.6776 45.9229L96.4178 47.5926C98.0727 48.3313 99.6799 49.2007 101.226 50.1934L103.523 51.6681C104.801 52.4887 105.978 53.4881 107.022 54.6393L107.538 55.2084C107.874 55.5787 108.181 55.9789 108.454 56.4043L108.687 56.7668C109.101 57.4099 109.405 58.1242 109.586 58.8743L109.664 59.1969C109.731 59.4784 109.768 59.7662 109.772 60.054C109.779 60.4842 109.713 60.9086 109.579 61.3067ZM110.864 68.8652L110.85 68.8779L110.837 68.8918C107.324 72.5918 103.221 75.5794 98.7075 77.7236L97.6391 78.2311C94.7643 79.5969 91.7638 80.6581 88.6778 81.4006L82.5211 82.8819L75.3856 83.7257C67.479 84.6607 59.4892 84.9259 51.4879 84.5191L43.873 83.6953C39.7826 83.2527 35.7198 82.4203 31.7321 81.2078L29.0574 80.3945C24.7406 79.0818 20.5808 77.1505 16.6911 74.6529L12.3336 71.855C10.942 70.9615 9.6716 69.8545 8.564 68.5705L7.27259 67.0733C6.48712 66.1627 5.88829 65.0853 5.51846 63.9173C5.16101 62.7883 5.02579 61.6009 5.12176 60.4337L5.21485 59.3016L5.54087 57.3567C5.73228 56.2148 6.09466 55.1225 6.61396 54.1221C7.00353 53.3717 7.47803 52.6796 8.02706 52.0608L9.10699 50.8438C9.92287 49.9243 10.8069 49.0788 11.751 48.3149L14.855 45.8033L19.3268 43.0838C24.0235 41.0688 28.9024 39.5377 33.901 38.5098L44.8671 36.2549L57.4861 35.2908L62.8928 35.3014C70.9806 35.3173 79.0814 36.4208 87.0097 38.5866L97.6417 42.4189C99.8144 43.202 101.911 44.2397 103.894 45.5128L106.506 47.1902C108.629 48.5533 110.478 50.3812 111.927 52.5504L112.904 54.0129C113.761 55.2946 114.352 56.7535 114.635 58.2842C114.935 59.9023 114.882 61.5567 114.482 63.114L114.451 63.2345C113.922 65.2911 112.836 67.105 111.331 68.4489L110.864 68.8652Z" stroke="#0148FF"/>
<path d="M56.0649 49.2019L56.3651 49.0767C57.0276 48.8004 57.7206 48.6039 58.4296 48.4912C59.4968 48.3217 60.5857 48.3445 61.6449 48.5587L62.5708 48.7459C63.683 48.9708 64.7387 49.417 65.6751 50.0579C66.3846 50.5435 67.016 51.1343 67.5477 51.8099L67.6511 51.9414C67.9407 52.3095 68.2028 52.6983 68.4354 53.1048L68.8027 53.7468C69.2174 54.4716 69.5552 55.2377 69.8105 56.0327L69.8521 56.1622C70.2045 57.2597 70.384 58.4054 70.384 59.5581C70.384 60.9418 70.1254 62.3133 69.6216 63.602L69.3692 64.2476C68.7768 65.763 67.8491 67.1248 66.6557 68.2308L66.5526 68.3263C65.5429 69.2621 64.3527 69.9816 63.055 70.4409L62.7284 70.5564C61.4663 71.003 60.1176 71.1501 58.7889 70.9859C57.8444 70.8692 56.9257 70.5971 56.0699 70.1807L55.9523 70.1235C54.8601 69.5921 53.8809 68.8544 53.0688 67.9512L52.7482 67.5946C51.5013 66.208 50.5935 64.5286 50.1078 62.7281C49.8407 61.7378 49.7026 60.7064 49.7026 59.6806C49.7026 58.032 50.0522 56.4021 50.7282 54.8984L51.1309 54.0026C51.5795 53.0048 52.1996 52.0933 52.963 51.3096C53.8442 50.405 54.8994 49.688 56.0649 49.2019Z" fill="#0148FF"/>
</svg>
