<svg width="120" height="120" viewBox="0 0 120 120" fill="none" xmlns="http://www.w3.org/2000/svg">
<path d="M40.675 8.11527L40.7566 8.15058L40.8411 8.1785C45.284 9.6475 49.4103 11.9407 53.0038 14.9381L54.3988 16.1017C56.6938 18.016 58.8002 20.1458 60.689 22.4619L65.1302 27.9077L69.1632 34.0655C73.9009 41.2993 78.1121 48.8644 81.7643 56.7024L84.8286 64.1997C86.5614 68.4395 87.9603 72.8083 89.0125 77.266L89.6722 80.0613C90.7961 84.8228 91.3637 89.6987 91.3637 94.5912V100.327C91.3637 101.91 91.1614 103.486 90.7617 105.017L90.158 107.33C89.927 108.215 89.5201 109.044 88.9616 109.769C88.3489 110.564 87.5682 111.214 86.6753 111.672L86.0289 112.004L84.3937 112.646C83.6175 112.95 82.7911 113.107 81.9572 113.107C81.3285 113.107 80.703 113.018 80.0992 112.843L79.5419 114.764L80.0991 112.843L78.569 112.399C77.5571 112.105 76.5731 111.723 75.6286 111.256L72.1588 109.541L67.9807 106.712C64.163 103.277 60.6688 99.4984 57.5423 95.4237L50.2082 85.8652L43.2148 74.3037L40.7042 69.4478C36.6168 61.5421 33.4176 53.2081 31.165 44.5983L28.8422 32.4888C28.3814 30.0865 28.1494 27.6459 28.1494 25.1997V21.5229C28.1494 19.1564 28.5895 16.8104 29.4471 14.6047L30.2855 12.4484C30.7056 11.3679 31.3489 10.3883 32.1733 9.5733L32.3892 9.35979C33.2466 8.5122 34.3064 7.89777 35.4679 7.57481C37.0266 7.14144 38.6868 7.25536 40.1716 7.89757L40.675 8.11527Z" stroke="#0148FF" stroke-width="4"/>
<path d="M90.5053 15.9L90.5164 15.9801L90.5333 16.0587C91.6211 21.1198 91.8869 26.3862 91.3191 31.6271L91.1802 32.9098C90.8169 36.2633 90.1622 39.5865 89.2248 42.8348L87.3235 49.4238L84.4442 56.6395C81.2541 64.6342 77.5079 72.3775 73.2391 79.7998L68.8124 86.6875C66.4721 90.3289 63.8481 93.7533 60.9709 96.9207L59.0003 99.0901C55.9127 102.489 52.4338 105.441 48.6579 107.865L44.3004 110.663C43.034 111.477 41.6715 112.086 40.2576 112.473L38.4461 112.968C37.5508 113.213 36.6258 113.244 35.7364 113.059C34.8768 112.88 34.0706 112.503 33.371 111.954L32.5871 111.338L31.2829 110.097L29.9795 111.685L31.2829 110.097C30.6033 109.45 30.0301 108.683 29.5853 107.827C29.2517 107.184 28.9933 106.496 28.8158 105.778L28.4081 104.13C28.1192 102.962 27.9162 101.767 27.8011 100.556L27.4065 96.4068L27.5205 90.939C28.2873 85.5376 29.5081 80.2012 31.1674 74.9971L34.867 63.3942L40.3666 50.8926L43.0523 45.7402C47.0398 38.0902 51.8644 30.9614 57.416 24.5162L65.675 16.2334C67.2915 14.6123 69.0607 13.182 70.9502 11.9687L73.5626 10.2913C75.5048 9.04423 77.6527 8.25149 79.8611 7.96667L81.4884 7.75679C82.7021 7.60026 83.9204 7.73643 85.0552 8.15546C86.2549 8.59842 87.3287 9.34542 88.1902 10.3363L89.6084 8.88224L88.1902 10.3363L88.2685 10.4264C89.4159 11.7461 90.1624 13.4215 90.4144 15.2425L90.5053 15.9Z" stroke="#0148FF" stroke-width="4"/>
<path d="M109.919 67.6442L109.862 67.6949L109.81 67.7505C106.412 71.3287 102.444 74.2179 98.0795 76.2915L97.0111 76.7991C94.2181 78.1259 91.303 79.1569 88.3049 79.8783L82.2234 81.3415L75.1649 82.1762C67.3444 83.101 59.4416 83.3644 51.5275 82.9641L43.9507 82.1444C39.9451 81.7111 35.9665 80.8959 32.0615 79.7085L29.3868 78.8952C25.1962 77.621 21.1581 75.7461 17.3823 73.3216L13.0247 70.5237C11.7584 69.7106 10.6022 68.7032 9.5943 67.5347L8.3029 66.0376C7.66464 65.2976 7.17805 64.4221 6.87752 63.473C6.58707 62.5556 6.47719 61.5908 6.55517 60.6423L6.64257 59.5795L6.95717 57.7027L5.06877 57.2414L6.95717 57.7026C7.12109 56.7247 7.43144 55.7893 7.87617 54.9326C8.20978 54.29 8.61615 53.6972 9.08635 53.1673L10.1663 51.9502C10.9313 51.088 11.7603 50.2951 12.6457 49.5788L15.6794 47.1241L19.9941 44.5C24.5836 42.5379 29.3494 41.0454 34.2315 40.0415L45.1165 37.8033L57.6012 36.8495L62.9562 36.86C70.907 36.8756 78.8705 37.958 86.6652 40.0824L97.2445 43.8956C99.315 44.6419 101.313 45.6308 103.203 46.8441L105.815 48.5215C107.758 49.7686 109.449 51.4409 110.775 53.4255L111.752 54.888C112.481 55.9787 112.984 57.2201 113.225 58.5227C113.48 59.8996 113.435 61.3073 113.094 62.6325L113.063 62.753C112.609 64.518 111.678 66.0746 110.386 67.2278L109.919 67.6442Z" stroke="#0148FF" stroke-width="4"/>
<path d="M56.0649 49.2019L56.3651 49.0767C57.0276 48.8004 57.7206 48.6039 58.4296 48.4912C59.4968 48.3217 60.5857 48.3445 61.6449 48.5587L62.5708 48.7459C63.683 48.9708 64.7387 49.417 65.6751 50.0579C66.3846 50.5435 67.016 51.1343 67.5477 51.8099L67.6511 51.9414C67.9407 52.3095 68.2028 52.6983 68.4354 53.1048L68.8027 53.7468C69.2174 54.4716 69.5552 55.2377 69.8105 56.0327L69.8521 56.1622C70.2045 57.2597 70.384 58.4054 70.384 59.5581C70.384 60.9418 70.1254 62.3133 69.6216 63.602L69.3692 64.2476C68.7768 65.763 67.8491 67.1248 66.6557 68.2308L66.5526 68.3263C65.5429 69.2621 64.3527 69.9816 63.055 70.4409L62.7284 70.5564C61.4663 71.003 60.1176 71.1501 58.7889 70.9859C57.8444 70.8692 56.9257 70.5971 56.0699 70.1807L55.9523 70.1235C54.8601 69.5921 53.8809 68.8544 53.0688 67.9512L52.7482 67.5946C51.5013 66.208 50.5935 64.5286 50.1078 62.7281C49.8407 61.7378 49.7026 60.7064 49.7026 59.6806C49.7026 58.032 50.0522 56.4021 50.7282 54.8984L51.1309 54.0026C51.5795 53.0048 52.1996 52.0933 52.963 51.3096C53.8442 50.405 54.8994 49.688 56.0649 49.2019Z" fill="#0148FF"/>
</svg>
