<svg width="306" height="306" viewBox="0 0 306 306" fill="none" xmlns="http://www.w3.org/2000/svg">
<path d="M7.09189 111.397L2.48583 131.158V131.456L1.8915 135.764L1.29717 142.599L1 148.394V153.446L1.29717 162.361L1.8915 170.236L3.37732 180.191L5.60606 189.997L9.02346 201.438L14.2239 214.662L20.4643 226.994L26.259 236.949L34.2825 247.35L41.4145 256.116L47.8035 262.654L55.827 269.786L63.999 276.175L73.3597 282.267L82.1261 287.467L89.8524 291.33L99.5103 295.491L105.454 297.571L114.22 300.097L121.649 301.88L129.821 303.514L135.319 304.109L138.736 304.406L141.856 304.703L145.868 305H157.309L167.561 304.554L172.167 304.109L176.625 303.514L178.705 303.068L180.488 302.771L183.014 302.028L185.985 301.434L190.146 300.543L194.455 299.502L196.832 298.76L201.289 297.422L205.152 296.234L210.204 294.302L215.108 292.222L222.834 288.359L229.074 284.941L234.275 281.821L239.029 278.552L246.31 273.5L252.253 268.597L262.505 259.088L265.774 255.671L269.34 251.213L273.203 246.756L276.769 241.704L280.038 237.246L283.158 232.64L286.576 226.697L289.845 220.159L292.816 213.77L295.491 207.678L297.274 202.478L298.611 198.169L299.948 193.712L301.731 187.471L302.177 185.837L302.771 183.459L303.217 180.042L303.811 176.03L304.554 171.87L305 163.995V152.851V145.868V139.776L303.663 130.713L301.88 120.906L298.017 105.899L292.965 92.6755L287.616 81.6804L280.187 69.0508L266.963 51.8153L254.631 39.4829L239.178 27.2991L227.143 19.7214L213.027 12.8866L198.021 7.38905L187.174 4.26882L174.544 2.04008L161.172 1H146.017L135.319 2.04008L121.055 4.26882L102.333 9.76637L87.4751 15.7097L73.2111 22.9902L58.9472 33.5396L43.4946 47.5064L37.1056 55.5298L29.0821 65.6334L21.3558 77.6686L13.3324 94.7556L7.09189 111.397Z" fill="#0148FF" stroke="white" stroke-width="2"/>
<path d="M76.2633 135.016L52.2873 143.8L76.2633 152.512V161.512L41.9913 148.48V139.12L76.2633 126.088V135.016ZM86.6049 118.6H98.2689V159.496H123.541V169H86.6049V118.6ZM163.27 143.008H173.926V163.456C171.19 165.52 168.022 167.104 164.422 168.208C160.822 169.312 157.198 169.864 153.55 169.864C148.318 169.864 143.614 168.76 139.438 166.552C135.262 164.296 131.974 161.2 129.574 157.264C127.222 153.28 126.046 148.792 126.046 143.8C126.046 138.808 127.222 134.344 129.574 130.408C131.974 126.424 135.286 123.328 139.51 121.12C143.734 118.864 148.486 117.736 153.766 117.736C158.182 117.736 162.19 118.48 165.79 119.968C169.39 121.456 172.414 123.616 174.862 126.448L167.374 133.36C163.774 129.568 159.43 127.672 154.342 127.672C151.126 127.672 148.27 128.344 145.774 129.688C143.278 131.032 141.334 132.928 139.942 135.376C138.55 137.824 137.854 140.632 137.854 143.8C137.854 146.92 138.55 149.704 139.942 152.152C141.334 154.6 143.254 156.52 145.702 157.912C148.198 159.256 151.03 159.928 154.198 159.928C157.558 159.928 160.582 159.208 163.27 157.768V143.008ZM220.56 108.376H230.568L206.808 176.2H196.8L220.56 108.376ZM266.107 139.12V148.48L231.835 161.512V152.512L255.811 143.8L231.835 135.016V126.088L266.107 139.12Z" fill="white"/>
</svg>
