<svg width="500" height="400" viewBox="0 0 500 400" fill="none" xmlns="http://www.w3.org/2000/svg">
<g clip-path="url(#clip0_614_2)">
<path d="M363.002 226.984V337.481L384.758 367.603L386.413 369.894H472.253L473.988 226.984H363.002Z" fill="#E6E6E6"/>
<path opacity="0.1" d="M363.002 226.984V337.481L384.758 367.603L386.093 226.984H363.002Z" fill="black"/>
<path d="M155.772 224.037V334.535L134.016 364.656L132.361 366.947H46.5206L44.7861 224.037H155.772Z" fill="#E6E6E6"/>
<path opacity="0.1" d="M155.772 224.037V334.535L134.017 364.656L132.682 224.037H155.772Z" fill="black"/>
<path d="M500 221.828V228.457H33.5142V218.88L76.8677 199.728H461.849L500 221.828Z" fill="#E6E6E6"/>
<path opacity="0.1" d="M500 221.827V228.457H33.5142V218.88L500 221.827Z" fill="black"/>
<path d="M100.279 254.976H79.469L70.7983 249.82H109.817L100.279 254.976Z" fill="#3F3D56"/>
<path d="M100.279 276.339H79.469L70.7983 271.183H109.817L100.279 276.339Z" fill="#3F3D56"/>
<path d="M100.279 306.542H79.469L70.7983 301.385H109.817L100.279 306.542Z" fill="#3F3D56"/>
<path d="M100.279 336.745H79.469L70.7983 331.588H109.817L100.279 336.745Z" fill="#3F3D56"/>
<path d="M418.495 257.923H439.305L447.976 252.766H408.958L418.495 257.923Z" fill="#3F3D56"/>
<path d="M418.495 279.286H439.305L447.976 274.129H408.958L418.495 279.286Z" fill="#3F3D56"/>
<path d="M418.495 309.489H439.305L447.976 304.332H408.958L418.495 309.489Z" fill="#3F3D56"/>
<path d="M418.495 339.691H439.305L447.976 334.535H408.958L418.495 339.691Z" fill="#3F3D56"/>
<path d="M432.666 71.9482H257.477C256.606 71.9481 255.745 72.0937 254.941 72.3765C254.137 72.6594 253.407 73.074 252.791 73.5967C252.176 74.1194 251.688 74.74 251.355 75.4229C251.022 76.1059 250.851 76.8379 250.851 77.5771V177.838C250.851 178.577 251.022 179.309 251.355 179.992C251.688 180.675 252.176 181.296 252.791 181.819C253.407 182.341 254.137 182.756 254.941 183.039C255.745 183.322 256.606 183.467 257.477 183.467H323.98L321.488 196.982C321.488 196.982 307.25 203.408 317.261 203.597C327.273 203.786 374.439 203.597 374.439 203.597C374.439 203.597 383.56 203.597 369.099 196.793L366.755 183.467H432.666C433.536 183.467 434.398 183.322 435.202 183.039C436.006 182.756 436.736 182.341 437.351 181.819C437.967 181.296 438.455 180.675 438.787 179.992C439.12 179.309 439.292 178.577 439.292 177.838V77.5771C439.292 76.8379 439.12 76.1059 438.787 75.4229C438.455 74.74 437.967 74.1194 437.351 73.5967C436.736 73.074 436.006 72.6594 435.202 72.3765C434.398 72.0937 433.536 71.9481 432.666 71.9482Z" fill="#3F3D56"/>
<path d="M432.951 77.9023H257.192V161.447H432.951V77.9023Z" fill="#F2F2F2"/>
<path d="M345.071 76.2012C345.686 76.2012 346.184 75.7781 346.184 75.2561C346.184 74.7342 345.686 74.311 345.071 74.311C344.457 74.311 343.959 74.7342 343.959 75.2561C343.959 75.7781 344.457 76.2012 345.071 76.2012Z" fill="#F2F2F2"/>
<path d="M345.071 179.403C347.406 179.403 349.298 177.795 349.298 175.812C349.298 173.829 347.406 172.221 345.071 172.221C342.737 172.221 340.844 173.829 340.844 175.812C340.844 177.795 342.737 179.403 345.071 179.403Z" fill="#F2F2F2"/>
<path d="M338.484 213.804V215.694H218.79V214.182L218.955 213.804L221.905 207H336.037L338.484 213.804Z" fill="#3F3D56"/>
<path d="M384.546 211.954C384.328 212.746 383.505 213.581 381.645 214.371C374.971 217.206 361.399 213.615 361.399 213.615C361.399 213.615 350.943 212.103 350.943 208.134C351.236 207.963 351.543 207.808 351.859 207.671C354.666 206.409 363.97 203.297 380.467 207.802C381.682 208.126 382.768 208.731 383.603 209.548C383.973 209.857 384.251 210.236 384.415 210.654C384.579 211.073 384.624 211.518 384.546 211.954Z" fill="#3F3D56"/>
<path opacity="0.1" d="M384.547 211.954C376.377 214.613 369.095 214.811 361.622 210.402C358.796 208.627 355.374 207.669 351.86 207.671C354.666 206.409 363.97 203.297 380.467 207.802C381.683 208.126 382.768 208.731 383.603 209.548C383.973 209.857 384.251 210.236 384.415 210.654C384.579 211.073 384.624 211.518 384.547 211.954Z" fill="black"/>
<path d="M374.303 210.402C375.901 210.402 377.196 210.063 377.196 209.646C377.196 209.228 375.901 208.89 374.303 208.89C372.706 208.89 371.411 209.228 371.411 209.646C371.411 210.063 372.706 210.402 374.303 210.402Z" fill="#F2F2F2"/>
<path opacity="0.1" d="M338.484 213.804V215.694H218.79V214.182L218.955 213.804H338.484Z" fill="black"/>
<path d="M66.5517 4.80581e-05C65.3369 -0.084687 64.1205 0.146171 63.0637 0.662033C62.026 1.26578 61.3719 2.32349 60.7043 3.30774C58.1517 7.11589 54.6961 10.4322 50.5563 13.0465C47.541 14.9232 43.7074 17.2632 44.2233 20.7234C44.4955 21.8661 44.9923 22.9616 45.6931 23.964C48.4748 28.7346 56.0656 32.4213 55.3189 37.865C58.0826 33.9342 54.386 31.9905 57.1497 28.0598C58.4658 26.1879 60.7522 24.0748 62.7393 25.2504C63.4046 25.644 63.8415 26.35 64.5343 26.6954C66.1873 27.5195 67.9459 25.944 69.4091 24.828C74.4548 20.9798 81.6302 21.988 87.9091 23.187C90.8733 23.753 94.1291 24.4957 95.8814 26.9026C98.1853 30.0672 93.6925 33.485 92.5574 37.0629C92.4647 37.3678 92.4603 37.6872 92.5446 37.9938C92.6289 38.3004 92.7993 38.5851 93.0414 38.8236C93.2834 39.0621 93.5898 39.2472 93.9344 39.3631C94.279 39.479 94.6515 39.5223 95.0201 39.4892C96.9041 39.3313 99.1359 39.2019 99.2474 38.4995C101.618 38.5712 104.522 38.3432 105.538 36.2462C105.848 35.4166 106.012 34.5524 106.025 33.6819C106.397 30.1595 108.157 26.9461 109.323 23.5936C110.488 20.2411 110.995 16.3122 109.028 13.3399C108.326 12.351 107.458 11.4544 106.451 10.6786C95.287 1.50008 80.6092 -0.0135763 66.5517 4.80581e-05Z" fill="#2F2E41"/>
<path d="M57.7471 44.7406C57.7471 44.7406 60.175 61.9299 51.2726 63.305C42.3703 64.6802 59.3657 88.0576 59.3657 88.0576L99.8309 92.183L90.1193 64.6802C90.1193 64.6802 83.6448 62.6174 87.6914 48.866C91.7379 35.1146 57.7471 44.7406 57.7471 44.7406Z" fill="#FFB8B8"/>
<path d="M33.063 340.052L36.3005 377.869H53.2953L48.4401 340.052H33.063Z" fill="#FFB8B8"/>
<path d="M157.696 268.545L160.123 300.173L178.738 293.298L171.454 267.17L157.696 268.545Z" fill="#FFB8B8"/>
<path d="M20.9233 195.663C20.9233 195.663 21.7326 235.542 26.5885 248.606C31.4444 261.669 30.635 262.357 29.8257 264.42C29.0164 266.482 28.2071 265.107 28.2071 268.545C28.2071 271.983 26.5885 326.301 28.2071 331.114C29.8257 335.927 23.3513 344.178 28.2071 344.865C33.0629 345.553 55.7235 344.865 56.5328 340.74C57.3421 336.615 50.0584 335.24 53.2956 332.489C56.5328 329.739 61.3886 273.358 61.3886 273.358L72.7189 234.167L93.7608 213.539H138.273L152.031 258.919C152.031 258.919 146.366 271.983 150.412 271.983C154.459 271.983 178.738 276.108 178.738 260.982C178.738 245.855 170.645 201.163 169.026 199.788C167.408 198.413 169.835 193.6 167.408 191.537C164.98 189.474 136.654 175.035 126.133 172.285C115.612 169.535 100.853 166.261 100.853 166.261L20.9233 195.663Z" fill="#2F2E41"/>
<path d="M178.738 287.797C178.738 287.797 166.598 284.359 160.933 294.673C155.268 304.986 157.696 307.737 157.696 307.737C157.696 307.737 176.31 313.237 179.547 310.487C180.956 309.29 185.428 308.875 190.031 308.787C197.043 308.653 198.908 300.226 192.287 298.263C192.089 298.205 191.889 298.154 191.687 298.111C185.212 296.736 178.738 287.797 178.738 287.797Z" fill="#2F2E41"/>
<path d="M75.9564 56.0856C89.3654 56.0856 100.236 46.8505 100.236 35.4584C100.236 24.0664 89.3654 14.8313 75.9564 14.8313C62.5474 14.8313 51.6772 24.0664 51.6772 35.4584C51.6772 46.8505 62.5474 56.0856 75.9564 56.0856Z" fill="#FFB8B8"/>
<path d="M44.3933 71.8998C44.3933 71.8998 84.0492 78.7755 93.7609 67.7744C103.473 56.7732 107.519 98.715 107.519 98.715L112.375 142.72L105.091 166.785C105.091 166.785 67.0538 192.912 54.9143 194.975C42.7747 197.038 24.1606 198.413 24.1606 198.413C24.1606 198.413 29.8258 122.092 29.8258 120.717C29.8258 119.342 44.3933 71.8998 44.3933 71.8998Z" fill="#6C63FF"/>
<path d="M56.4534 59.0046C56.4534 59.0046 47.6303 54.7105 45.2024 58.836C42.7745 62.9614 20.114 73.2749 17.686 73.2749C15.2581 73.2749 22.5419 130.343 19.3047 137.219C16.0674 144.095 0.690648 194.287 9.593 198.413C18.4954 202.538 12.0209 194.287 20.9233 204.601C29.8256 214.915 73.5281 214.915 75.956 210.789C78.3839 206.664 56.5327 175.723 60.5792 146.845C64.6257 117.967 71.1002 78.0879 65.4351 72.5874C59.7699 67.0868 56.4534 59.0046 56.4534 59.0046Z" fill="#2F2E41"/>
<path d="M85.668 63.6489L86.7953 60.353C86.7953 60.353 120.468 69.8371 122.087 76.0252C123.705 82.2134 122.896 125.53 117.231 128.968C111.566 132.406 103.473 137.907 109.138 146.157C114.803 154.408 121.277 163.347 126.133 164.034C130.989 164.722 139.891 169.535 137.464 174.348C135.036 179.161 105.901 170.222 105.901 170.222C105.901 170.222 86.4773 157.846 87.2866 138.594C88.0959 119.342 85.668 63.6489 85.668 63.6489Z" fill="#2F2E41"/>
<path d="M113.994 144.782L94.5703 175.723C94.5703 175.723 66.2447 200.475 82.4308 203.226C98.6169 205.976 107.519 180.536 107.519 180.536L128.561 155.096L113.994 144.782Z" fill="#FFB8B8"/>
<path d="M67.7345 5.39708C66.7559 5.33547 65.7757 5.497 64.8951 5.86497C64.099 6.35897 63.4428 6.99785 62.9745 7.73493C60.8159 10.4936 58.002 12.8382 54.7136 14.6182C52.259 15.9447 49.1383 17.5985 49.5583 20.0442C49.7863 20.8641 50.192 21.6409 50.7548 22.3346C53.027 25.7405 53.9316 29.6826 53.3316 33.5642L60.0809 25.2295C61.1523 23.9065 63.0135 22.413 64.6311 23.2439C65.1727 23.5221 65.5284 24.0211 66.0923 24.2652C67.4379 24.8476 68.8695 23.7341 70.0606 22.9453C74.168 20.2255 80.0091 20.938 85.1204 21.7854C87.5334 22.1855 90.1838 22.7104 91.6102 24.4116C93.9807 27.2387 91.5054 31.3236 92.8889 34.5896C93.2762 34.3592 93.6051 34.0652 93.8561 33.7248C94.1071 33.3845 94.2751 33.0048 94.3502 32.6082C96.2798 32.6589 98.6441 32.4977 99.4708 31.0156C99.7223 30.4348 99.8563 29.822 99.8672 29.2032C100.171 26.7136 101.603 24.4423 102.552 22.0728C103.501 19.7033 103.914 16.9264 102.312 14.8256C101.726 14.1138 101.019 13.4799 100.214 12.9446C91.1263 6.45728 79.1779 5.38745 67.7345 5.39708Z" fill="#2F2E41"/>
<path d="M113.993 73.2749L121.534 74.9753C121.534 74.9753 139.082 113.154 135.035 139.282C130.989 165.409 128.561 159.909 128.561 159.909C128.561 159.909 122.087 147.533 107.519 150.283L113.993 73.2749Z" fill="#2F2E41"/>
<path d="M34.1844 372.871C32.2328 375.124 32.6241 378.345 30.8953 380.726C29.3968 382.79 26.5727 383.872 24.6984 385.701C24.1003 386.308 23.5671 386.96 23.1052 387.648C21.3665 390.122 19.9532 393.293 21.6656 395.781C23.0431 397.782 25.9386 398.564 28.5941 399.097C31.9505 399.771 35.4379 400.31 38.833 399.795C42.2282 399.28 45.5463 397.514 46.7569 394.77C46.9948 394.081 47.2776 393.402 47.6041 392.739C49.4443 389.661 55.2164 389.628 57.0997 386.569C58.4177 384.428 57.2061 381.841 55.9951 379.655L52.2963 372.979C51.0688 370.763 46.0928 372.037 43.4987 371.507C40.1155 370.814 36.6183 370.051 34.1844 372.871Z" fill="#2F2E41"/>
<path d="M7.16504 158.534L41.1559 203.226C41.1559 203.226 62.1978 225.916 68.6722 215.602C75.1467 205.289 46.0117 188.099 46.0117 188.099L24.1604 153.721L7.16504 158.534Z" fill="#FFB8B8"/>
<path d="M24.1606 74.65L17.6862 73.2749C17.6862 73.2749 4.73733 76.7128 1.50011 91.1517C-1.7371 105.591 0.690804 163.347 4.73733 164.034C8.78385 164.722 24.7231 153.978 27.2744 156.256C29.8258 158.534 21.7327 146.845 24.1606 140.657C26.5885 134.469 24.1606 74.65 24.1606 74.65Z" fill="#2F2E41"/>
<path d="M328.436 105.341H307.519V109.619H328.436V105.341Z" fill="#6C63FF"/>
<path d="M400.872 105.341H393.512V109.619H400.872V105.341Z" fill="#6C63FF"/>
<path d="M415.592 105.341H408.232V109.619H415.592V105.341Z" fill="#6C63FF"/>
<path d="M385.765 105.341H335.796V109.619H385.765V105.341Z" fill="#6C63FF"/>
<path d="M302.096 132.985H281.178V137.263H302.096V132.985Z" fill="#6C63FF"/>
<path d="M374.532 132.985H367.172V137.263H374.532V132.985Z" fill="#6C63FF"/>
<path d="M389.251 132.985H381.892V137.263H389.251V132.985Z" fill="#6C63FF"/>
<path d="M359.425 132.985H309.456V137.263H359.425V132.985Z" fill="#6C63FF"/>
<path d="M388.476 114.885H367.559V119.163H388.476V114.885Z" fill="#6C63FF"/>
<path d="M416.754 114.885H395.836V119.163H416.754V114.885Z" fill="#6C63FF"/>
<path d="M288.538 114.885H281.178V119.163H288.538V114.885Z" fill="#6C63FF"/>
<path d="M303.258 114.885H295.898V119.163H303.258V114.885Z" fill="#6C63FF"/>
<path d="M360.587 114.885H310.618V119.163H360.587V114.885Z" fill="#6C63FF"/>
<path d="M345.092 124.099H324.175V128.378H345.092V124.099Z" fill="#6C63FF"/>
<path d="M316.815 124.099H295.898V128.378H316.815V124.099Z" fill="#6C63FF"/>
<path d="M288.538 124.099H281.178V128.378H288.538V124.099Z" fill="#6C63FF"/>
<path d="M416.754 124.099H409.394V128.378H416.754V124.099Z" fill="#6C63FF"/>
<path d="M402.034 124.099H352.065V128.378H402.034V124.099Z" fill="#6C63FF"/>
</g>
<defs>
<clipPath id="clip0_614_2">
<rect width="500" height="400" fill="white"/>
</clipPath>
</defs>
</svg>
