<svg width="359" height="261" viewBox="0 0 359 261" fill="none" xmlns="http://www.w3.org/2000/svg">
<g clip-path="url(#clip0_614_403)">
<path d="M209.117 46.0111C215.845 46.0111 221.299 40.5588 221.299 33.8332C221.299 27.1075 215.845 21.6553 209.117 21.6553C202.388 21.6553 196.934 27.1075 196.934 33.8332C196.934 40.5588 202.388 46.0111 209.117 46.0111Z" fill="#F2F2F2"/>
<path d="M303.622 226.745C321.73 212.958 330.379 189.79 324.964 167.69C324.83 167.141 324.688 166.593 324.538 166.046C320.949 152.928 312.068 140.459 299.124 136.268C288.256 132.748 276.393 135.455 265.055 134.055C242.798 131.307 225.542 113.306 213.401 94.4577C201.259 75.6096 191.928 54.512 175.794 38.9407C149.201 13.2742 105.82 7.74819 72.8484 24.4552C39.8764 41.1622 18.8736 78.2281 19.7693 115.169C20.665 152.11 42.6037 187.428 74.4642 206.166C86.1685 213.05 99.7056 217.927 113.178 216.22C124.867 214.74 135.489 208.461 147.123 206.597C165.416 203.666 183.591 211.934 199.413 221.567C215.234 231.201 230.517 242.62 248.495 247.087C265.953 251.423 287.581 238.958 303.622 226.745Z" fill="#F2F2F2"/>
<path d="M277.605 25.2308C277.208 24.9663 276.806 24.7154 276.409 24.46C264.934 17.1242 252.636 11.1646 239.766 6.70449L236.782 47.8528H217.866V0.697814C216.675 0.451527 215.475 0.218922 214.275 0V47.8528H191.794C179.419 47.8528 167.55 42.9385 158.799 34.191C150.048 25.4436 145.132 13.5795 145.132 1.20869V1.20864C143.927 1.46862 142.732 1.74683 141.537 2.04329V47.8528H123.227L120.384 8.61551C107.159 13.6855 94.6037 20.3528 82.9976 28.469C82.7968 28.6059 82.596 28.7472 82.3998 28.8841C81.3915 29.591 80.3968 30.3116 79.4067 31.0414V188.022H133.369L132.416 174.819L127.169 102.323H232.836L227.589 174.819L226.635 188.022H280V26.818C279.206 26.2798 278.408 25.7508 277.605 25.2308ZM141.537 90.3511H126.302L123.487 51.4467H141.537V90.3511ZM214.275 90.3511H188.687V89.5803C188.687 89.2097 188.614 88.8428 188.472 88.5006C188.33 88.1583 188.122 87.8474 187.86 87.5856C187.597 87.3238 187.286 87.1162 186.943 86.9749C186.601 86.8335 186.234 86.761 185.863 86.7617H174.739C174.369 86.7615 174.002 86.8343 173.66 86.9759C173.318 87.1175 173.007 87.3251 172.745 87.5869C172.483 87.8487 172.275 88.1594 172.134 88.5015C171.992 88.8435 171.919 89.2101 171.919 89.5803V90.3511H145.132V51.4467H214.275V90.3511ZM217.866 90.3511V51.4467H236.522L233.707 90.3511H217.866Z" fill="#3F3D56"/>
<path d="M0 198.075C3.96371 202.769 8.25091 207.181 12.8302 211.278L346.17 211.735C350.749 207.638 355.036 203.226 359 198.531L0 198.075Z" fill="#3F3D56"/>
<path d="M226.048 155.796V194.884C226.049 195.382 226.247 195.86 226.599 196.212C226.952 196.564 227.429 196.762 227.928 196.763H285.876C286.374 196.762 286.852 196.564 287.204 196.212C287.557 195.86 287.755 195.382 287.755 194.884V155.796C287.754 155.298 287.555 154.821 287.203 154.469C286.851 154.117 286.374 153.92 285.876 153.919H227.928C227.43 153.92 226.952 154.117 226.6 154.469C226.248 154.821 226.05 155.298 226.048 155.796Z" fill="#3F3D56"/>
<path d="M227.408 156.282V194.402C227.408 194.668 227.514 194.923 227.702 195.111C227.891 195.3 228.146 195.406 228.412 195.406H285.393C285.66 195.406 285.915 195.3 286.103 195.111C286.291 194.923 286.397 194.668 286.398 194.402V156.282C286.398 156.016 286.292 155.76 286.104 155.571C285.915 155.383 285.66 155.276 285.393 155.276H228.412C228.146 155.276 227.89 155.383 227.702 155.571C227.514 155.76 227.408 156.016 227.408 156.282Z" fill="#6C63FF"/>
<path d="M224.836 202.508C224.942 202.641 225.077 202.748 225.231 202.822C225.385 202.895 225.553 202.933 225.723 202.932H287.772C287.941 202.932 288.109 202.894 288.262 202.821C288.415 202.748 288.55 202.641 288.657 202.51C288.764 202.378 288.84 202.224 288.88 202.059C288.92 201.894 288.923 201.722 288.888 201.556L287.925 196.983C287.885 196.797 287.799 196.623 287.675 196.478C287.55 196.333 287.392 196.222 287.214 196.154C287.085 196.103 286.947 196.077 286.808 196.078H226.682C226.544 196.077 226.406 196.103 226.277 196.154C226.099 196.222 225.941 196.333 225.816 196.478C225.692 196.623 225.606 196.797 225.566 196.983L224.603 201.556C224.569 201.722 224.572 201.894 224.612 202.058C224.653 202.223 224.729 202.376 224.836 202.508Z" fill="#2F2E41"/>
<path d="M284.679 198.047H286.145C286.268 198.047 286.368 197.948 286.368 197.825V197.124C286.368 197.001 286.268 196.901 286.145 196.901H284.679C284.556 196.901 284.457 197.001 284.457 197.124V197.825C284.457 197.948 284.556 198.047 284.679 198.047Z" fill="#3F3D56"/>
<path d="M280.858 198.047H282.323C282.446 198.047 282.546 197.948 282.546 197.825V197.124C282.546 197.001 282.446 196.901 282.323 196.901H280.858C280.735 196.901 280.635 197.001 280.635 197.124V197.825C280.635 197.948 280.735 198.047 280.858 198.047Z" fill="#3F3D56"/>
<path d="M277.035 198.047H278.501C278.624 198.047 278.724 197.948 278.724 197.825V197.124C278.724 197.001 278.624 196.901 278.501 196.901H277.035C276.912 196.901 276.813 197.001 276.813 197.124V197.825C276.813 197.948 276.912 198.047 277.035 198.047Z" fill="#3F3D56"/>
<path d="M273.213 198.047H274.679C274.802 198.047 274.901 197.948 274.901 197.825V197.124C274.901 197.001 274.802 196.901 274.679 196.901H273.213C273.09 196.901 272.99 197.001 272.99 197.124V197.825C272.99 197.948 273.09 198.047 273.213 198.047Z" fill="#3F3D56"/>
<path d="M269.391 198.047H270.856C270.979 198.047 271.079 197.948 271.079 197.825V197.124C271.079 197.001 270.979 196.901 270.856 196.901H269.391C269.268 196.901 269.168 197.001 269.168 197.124V197.825C269.168 197.948 269.268 198.047 269.391 198.047Z" fill="#3F3D56"/>
<path d="M265.569 198.047H267.035C267.158 198.047 267.257 197.948 267.257 197.825V197.124C267.257 197.001 267.158 196.901 267.035 196.901H265.569C265.446 196.901 265.346 197.001 265.346 197.124V197.825C265.346 197.948 265.446 198.047 265.569 198.047Z" fill="#3F3D56"/>
<path d="M261.747 198.047H263.212C263.335 198.047 263.435 197.948 263.435 197.825V197.124C263.435 197.001 263.335 196.901 263.212 196.901H261.747C261.624 196.901 261.524 197.001 261.524 197.124V197.825C261.524 197.948 261.624 198.047 261.747 198.047Z" fill="#3F3D56"/>
<path d="M257.924 198.047H259.39C259.513 198.047 259.613 197.948 259.613 197.825V197.124C259.613 197.001 259.513 196.901 259.39 196.901H257.924C257.801 196.901 257.702 197.001 257.702 197.124V197.825C257.702 197.948 257.801 198.047 257.924 198.047Z" fill="#3F3D56"/>
<path d="M254.103 198.047H255.568C255.691 198.047 255.791 197.948 255.791 197.825V197.124C255.791 197.001 255.691 196.901 255.568 196.901H254.103C253.98 196.901 253.88 197.001 253.88 197.124V197.825C253.88 197.948 253.98 198.047 254.103 198.047Z" fill="#3F3D56"/>
<path d="M250.28 198.047H251.746C251.869 198.047 251.969 197.948 251.969 197.825V197.124C251.969 197.001 251.869 196.901 251.746 196.901H250.28C250.157 196.901 250.058 197.001 250.058 197.124V197.825C250.058 197.948 250.157 198.047 250.28 198.047Z" fill="#3F3D56"/>
<path d="M246.458 198.047H247.924C248.047 198.047 248.146 197.948 248.146 197.825V197.124C248.146 197.001 248.047 196.901 247.924 196.901H246.458C246.335 196.901 246.235 197.001 246.235 197.124V197.825C246.235 197.948 246.335 198.047 246.458 198.047Z" fill="#3F3D56"/>
<path d="M242.636 198.047H244.101C244.224 198.047 244.324 197.948 244.324 197.825V197.124C244.324 197.001 244.224 196.901 244.101 196.901H242.636C242.513 196.901 242.413 197.001 242.413 197.124V197.825C242.413 197.948 242.513 198.047 242.636 198.047Z" fill="#3F3D56"/>
<path d="M238.814 198.047H240.28C240.403 198.047 240.502 197.948 240.502 197.825V197.124C240.502 197.001 240.403 196.901 240.28 196.901H238.814C238.691 196.901 238.591 197.001 238.591 197.124V197.825C238.591 197.948 238.691 198.047 238.814 198.047Z" fill="#3F3D56"/>
<path d="M234.992 198.047H236.457C236.58 198.047 236.68 197.948 236.68 197.825V197.124C236.68 197.001 236.58 196.901 236.457 196.901H234.992C234.869 196.901 234.769 197.001 234.769 197.124V197.825C234.769 197.948 234.869 198.047 234.992 198.047Z" fill="#3F3D56"/>
<path d="M231.17 198.047H232.635C232.758 198.047 232.858 197.948 232.858 197.825V197.124C232.858 197.001 232.758 196.901 232.635 196.901H231.17C231.047 196.901 230.947 197.001 230.947 197.124V197.825C230.947 197.948 231.047 198.047 231.17 198.047Z" fill="#3F3D56"/>
<path d="M227.347 198.047H228.813C228.936 198.047 229.036 197.948 229.036 197.825V197.124C229.036 197.001 228.936 196.901 228.813 196.901H227.347C227.224 196.901 227.125 197.001 227.125 197.124V197.825C227.125 197.948 227.224 198.047 227.347 198.047Z" fill="#3F3D56"/>
<path d="M284.725 199.958H286.19C286.313 199.958 286.413 199.858 286.413 199.735V199.034C286.413 198.911 286.313 198.811 286.19 198.811H284.725C284.602 198.811 284.502 198.911 284.502 199.034V199.735C284.502 199.858 284.602 199.958 284.725 199.958Z" fill="#3F3D56"/>
<path d="M280.903 199.958H282.368C282.491 199.958 282.591 199.858 282.591 199.735V199.034C282.591 198.911 282.491 198.811 282.368 198.811H280.903C280.779 198.811 280.68 198.911 280.68 199.034V199.735C280.68 199.858 280.779 199.958 280.903 199.958Z" fill="#3F3D56"/>
<path d="M277.08 199.958H278.546C278.669 199.958 278.769 199.858 278.769 199.735V199.034C278.769 198.911 278.669 198.811 278.546 198.811H277.08C276.957 198.811 276.857 198.911 276.857 199.034V199.735C276.857 199.858 276.957 199.958 277.08 199.958Z" fill="#3F3D56"/>
<path d="M273.258 199.958H274.724C274.847 199.958 274.947 199.858 274.947 199.735V199.034C274.947 198.911 274.847 198.811 274.724 198.811H273.258C273.135 198.811 273.036 198.911 273.036 199.034V199.735C273.036 199.858 273.135 199.958 273.258 199.958Z" fill="#3F3D56"/>
<path d="M269.436 199.958H270.902C271.025 199.958 271.125 199.858 271.125 199.735V199.034C271.125 198.911 271.025 198.811 270.902 198.811H269.436C269.313 198.811 269.213 198.911 269.213 199.034V199.735C269.213 199.858 269.313 199.958 269.436 199.958Z" fill="#3F3D56"/>
<path d="M265.614 199.958H267.08C267.203 199.958 267.302 199.858 267.302 199.735V199.034C267.302 198.911 267.203 198.811 267.08 198.811H265.614C265.491 198.811 265.391 198.911 265.391 199.034V199.735C265.391 199.858 265.491 199.958 265.614 199.958Z" fill="#3F3D56"/>
<path d="M261.792 199.958H263.258C263.381 199.958 263.48 199.858 263.48 199.735V199.034C263.48 198.911 263.381 198.811 263.258 198.811H261.792C261.669 198.811 261.569 198.911 261.569 199.034V199.735C261.569 199.858 261.669 199.958 261.792 199.958Z" fill="#3F3D56"/>
<path d="M257.97 199.958H259.435C259.558 199.958 259.658 199.858 259.658 199.735V199.034C259.658 198.911 259.558 198.811 259.435 198.811H257.97C257.847 198.811 257.747 198.911 257.747 199.034V199.735C257.747 199.858 257.847 199.958 257.97 199.958Z" fill="#3F3D56"/>
<path d="M254.148 199.958H255.613C255.736 199.958 255.836 199.858 255.836 199.735V199.034C255.836 198.911 255.736 198.811 255.613 198.811H254.148C254.025 198.811 253.925 198.911 253.925 199.034V199.735C253.925 199.858 254.025 199.958 254.148 199.958Z" fill="#3F3D56"/>
<path d="M250.325 199.958H251.791C251.914 199.958 252.014 199.858 252.014 199.735V199.034C252.014 198.911 251.914 198.811 251.791 198.811H250.325C250.202 198.811 250.103 198.911 250.103 199.034V199.735C250.103 199.858 250.202 199.958 250.325 199.958Z" fill="#3F3D56"/>
<path d="M246.503 199.958H247.969C248.092 199.958 248.191 199.858 248.191 199.735V199.034C248.191 198.911 248.092 198.811 247.969 198.811H246.503C246.38 198.811 246.28 198.911 246.28 199.034V199.735C246.28 199.858 246.38 199.958 246.503 199.958Z" fill="#3F3D56"/>
<path d="M242.681 199.958H244.147C244.27 199.958 244.37 199.858 244.37 199.735V199.034C244.37 198.911 244.27 198.811 244.147 198.811H242.681C242.558 198.811 242.459 198.911 242.459 199.034V199.735C242.459 199.858 242.558 199.958 242.681 199.958Z" fill="#3F3D56"/>
<path d="M238.859 199.958H240.325C240.448 199.958 240.547 199.858 240.547 199.735V199.034C240.547 198.911 240.448 198.811 240.325 198.811H238.859C238.736 198.811 238.636 198.911 238.636 199.034V199.735C238.636 199.858 238.736 199.958 238.859 199.958Z" fill="#3F3D56"/>
<path d="M235.037 199.958H236.502C236.625 199.958 236.725 199.858 236.725 199.735V199.034C236.725 198.911 236.625 198.811 236.502 198.811H235.037C234.914 198.811 234.814 198.911 234.814 199.034V199.735C234.814 199.858 234.914 199.958 235.037 199.958Z" fill="#3F3D56"/>
<path d="M231.215 199.958H232.681C232.804 199.958 232.903 199.858 232.903 199.735V199.034C232.903 198.911 232.804 198.811 232.681 198.811H231.215C231.092 198.811 230.992 198.911 230.992 199.034V199.735C230.992 199.858 231.092 199.958 231.215 199.958Z" fill="#3F3D56"/>
<path d="M227.393 199.958H228.858C228.981 199.958 229.081 199.858 229.081 199.735V199.034C229.081 198.911 228.981 198.811 228.858 198.811H227.393C227.27 198.811 227.17 198.911 227.17 199.034V199.735C227.17 199.858 227.27 199.958 227.393 199.958Z" fill="#3F3D56"/>
<path d="M253.001 202.25H267.844C267.967 202.25 268.067 202.15 268.067 202.027V201.326C268.067 201.203 267.967 201.104 267.844 201.104H253.001C252.878 201.104 252.778 201.203 252.778 201.326V202.027C252.778 202.15 252.878 202.25 253.001 202.25Z" fill="#3F3D56"/>
<path d="M237.275 163.616H235.978C235.585 163.616 235.266 163.934 235.266 164.328C235.266 164.721 235.585 165.04 235.978 165.04H237.275C237.669 165.04 237.988 164.721 237.988 164.328C237.988 163.934 237.669 163.616 237.275 163.616Z" fill="white"/>
<path d="M252.114 163.616H250.817C250.423 163.616 250.104 163.934 250.104 164.328C250.104 164.721 250.423 165.04 250.817 165.04H252.114C252.508 165.04 252.827 164.721 252.827 164.328C252.827 163.934 252.508 163.616 252.114 163.616Z" fill="white"/>
<path d="M256.319 163.616H255.021C254.628 163.616 254.309 163.934 254.309 164.328C254.309 164.721 254.628 165.04 255.021 165.04H256.319C256.712 165.04 257.031 164.721 257.031 164.328C257.031 163.934 256.712 163.616 256.319 163.616Z" fill="white"/>
<path d="M248.078 163.497H240.014C239.621 163.497 239.302 163.816 239.302 164.209C239.302 164.602 239.621 164.921 240.014 164.921H248.078C248.471 164.921 248.79 164.602 248.79 164.209C248.79 163.816 248.471 163.497 248.078 163.497Z" fill="white"/>
<path d="M267.864 163.497H259.8C259.406 163.497 259.087 163.816 259.087 164.209C259.087 164.602 259.406 164.921 259.8 164.921H267.864C268.257 164.921 268.576 164.602 268.576 164.209C268.576 163.816 268.257 163.497 267.864 163.497Z" fill="white"/>
<path d="M241.232 166.83H239.935C239.542 166.83 239.223 167.148 239.223 167.542C239.223 167.935 239.542 168.254 239.935 168.254H241.232C241.626 168.254 241.945 167.935 241.945 167.542C241.945 167.148 241.626 166.83 241.232 166.83Z" fill="white"/>
<path d="M256.071 166.83H254.774C254.38 166.83 254.062 167.148 254.062 167.542C254.062 167.935 254.38 168.254 254.774 168.254H256.071C256.465 168.254 256.784 167.935 256.784 167.542C256.784 167.148 256.465 166.83 256.071 166.83Z" fill="white"/>
<path d="M260.276 166.83H258.978C258.585 166.83 258.266 167.148 258.266 167.542C258.266 167.935 258.585 168.254 258.978 168.254H260.276C260.669 168.254 260.988 167.935 260.988 167.542C260.988 167.148 260.669 166.83 260.276 166.83Z" fill="white"/>
<path d="M252.035 166.711H243.971C243.578 166.711 243.259 167.03 243.259 167.423C243.259 167.816 243.578 168.135 243.971 168.135H252.035C252.428 168.135 252.747 167.816 252.747 167.423C252.747 167.03 252.428 166.711 252.035 166.711Z" fill="white"/>
<path d="M271.821 166.711H263.757C263.363 166.711 263.044 167.03 263.044 167.423C263.044 167.816 263.363 168.135 263.757 168.135H271.821C272.214 168.135 272.533 167.816 272.533 167.423C272.533 167.03 272.214 166.711 271.821 166.711Z" fill="white"/>
<path d="M245.189 170.043H243.892C243.499 170.043 243.18 170.362 243.18 170.755C243.18 171.149 243.499 171.467 243.892 171.467H245.189C245.583 171.467 245.902 171.149 245.902 170.755C245.902 170.362 245.583 170.043 245.189 170.043Z" fill="white"/>
<path d="M260.029 170.043H258.731C258.338 170.043 258.019 170.362 258.019 170.755C258.019 171.149 258.338 171.467 258.731 171.467H260.029C260.422 171.467 260.741 171.149 260.741 170.755C260.741 170.362 260.422 170.043 260.029 170.043Z" fill="white"/>
<path d="M264.233 170.043H262.935C262.542 170.043 262.223 170.362 262.223 170.755C262.223 171.149 262.542 171.467 262.935 171.467H264.233C264.626 171.467 264.945 171.149 264.945 170.755C264.945 170.362 264.626 170.043 264.233 170.043Z" fill="white"/>
<path d="M255.992 169.925H247.928C247.535 169.925 247.216 170.244 247.216 170.637C247.216 171.03 247.535 171.349 247.928 171.349H255.992C256.386 171.349 256.704 171.03 256.704 170.637C256.704 170.244 256.386 169.925 255.992 169.925Z" fill="white"/>
<path d="M275.778 169.925H267.714C267.32 169.925 267.001 170.244 267.001 170.637C267.001 171.03 267.32 171.349 267.714 171.349H275.778C276.171 171.349 276.49 171.03 276.49 170.637C276.49 170.244 276.171 169.925 275.778 169.925Z" fill="white"/>
<path d="M249.146 173.257H247.849C247.456 173.257 247.137 173.576 247.137 173.969C247.137 174.363 247.456 174.681 247.849 174.681H249.146C249.54 174.681 249.859 174.363 249.859 173.969C249.859 173.576 249.54 173.257 249.146 173.257Z" fill="white"/>
<path d="M263.986 173.257H262.688C262.295 173.257 261.976 173.576 261.976 173.969C261.976 174.363 262.295 174.681 262.688 174.681H263.986C264.379 174.681 264.698 174.363 264.698 173.969C264.698 173.576 264.379 173.257 263.986 173.257Z" fill="white"/>
<path d="M268.19 173.257H266.892C266.499 173.257 266.18 173.576 266.18 173.969C266.18 174.363 266.499 174.681 266.892 174.681H268.19C268.583 174.681 268.902 174.363 268.902 173.969C268.902 173.576 268.583 173.257 268.19 173.257Z" fill="white"/>
<path d="M259.95 173.139H251.886C251.492 173.139 251.173 173.457 251.173 173.851C251.173 174.244 251.492 174.563 251.886 174.563H259.95C260.343 174.563 260.662 174.244 260.662 173.851C260.662 173.457 260.343 173.139 259.95 173.139Z" fill="white"/>
<path d="M252.114 186.037H250.817C250.423 186.037 250.104 186.356 250.104 186.749C250.104 187.142 250.423 187.461 250.817 187.461H252.114C252.508 187.461 252.827 187.142 252.827 186.749C252.827 186.356 252.508 186.037 252.114 186.037Z" fill="white"/>
<path d="M256.319 186.037H255.021C254.628 186.037 254.309 186.356 254.309 186.749C254.309 187.142 254.628 187.461 255.021 187.461H256.319C256.712 187.461 257.031 187.142 257.031 186.749C257.031 186.356 256.712 186.037 256.319 186.037Z" fill="white"/>
<path d="M267.864 186.156H259.8C259.406 186.156 259.087 186.475 259.087 186.868C259.087 187.261 259.406 187.58 259.8 187.58H267.864C268.257 187.58 268.576 187.261 268.576 186.868C268.576 186.475 268.257 186.156 267.864 186.156Z" fill="white"/>
<path d="M237.275 186.037H235.978C235.585 186.037 235.266 186.356 235.266 186.749C235.266 187.142 235.585 187.461 235.978 187.461H237.275C237.669 187.461 237.988 187.142 237.988 186.749C237.988 186.356 237.669 186.037 237.275 186.037Z" fill="white"/>
<path d="M248.078 186.156H240.014C239.621 186.156 239.302 186.475 239.302 186.868C239.302 187.261 239.621 187.58 240.014 187.58H248.078C248.471 187.58 248.79 187.261 248.79 186.868C248.79 186.475 248.471 186.156 248.078 186.156Z" fill="white"/>
<path d="M241.232 182.823H239.935C239.542 182.823 239.223 183.142 239.223 183.535C239.223 183.928 239.542 184.247 239.935 184.247H241.232C241.626 184.247 241.945 183.928 241.945 183.535C241.945 183.142 241.626 182.823 241.232 182.823Z" fill="white"/>
<path d="M256.071 182.823H254.774C254.38 182.823 254.062 183.142 254.062 183.535C254.062 183.928 254.38 184.247 254.774 184.247H256.071C256.465 184.247 256.784 183.928 256.784 183.535C256.784 183.142 256.465 182.823 256.071 182.823Z" fill="white"/>
<path d="M260.276 182.823H258.978C258.585 182.823 258.266 183.142 258.266 183.535C258.266 183.928 258.585 184.247 258.978 184.247H260.276C260.669 184.247 260.988 183.928 260.988 183.535C260.988 183.142 260.669 182.823 260.276 182.823Z" fill="white"/>
<path d="M252.035 182.942H243.971C243.578 182.942 243.259 183.261 243.259 183.654C243.259 184.047 243.578 184.366 243.971 184.366H252.035C252.428 184.366 252.747 184.047 252.747 183.654C252.747 183.261 252.428 182.942 252.035 182.942Z" fill="white"/>
<path d="M245.189 179.609H243.892C243.499 179.609 243.18 179.928 243.18 180.321C243.18 180.715 243.499 181.033 243.892 181.033H245.189C245.583 181.033 245.902 180.715 245.902 180.321C245.902 179.928 245.583 179.609 245.189 179.609Z" fill="white"/>
<path d="M260.029 179.609H258.731C258.338 179.609 258.019 179.928 258.019 180.321C258.019 180.715 258.338 181.033 258.731 181.033H260.029C260.422 181.033 260.741 180.715 260.741 180.321C260.741 179.928 260.422 179.609 260.029 179.609Z" fill="white"/>
<path d="M264.233 179.609H262.935C262.542 179.609 262.223 179.928 262.223 180.321C262.223 180.715 262.542 181.033 262.935 181.033H264.233C264.626 181.033 264.945 180.715 264.945 180.321C264.945 179.928 264.626 179.609 264.233 179.609Z" fill="white"/>
<path d="M255.992 179.728H247.928C247.535 179.728 247.216 180.047 247.216 180.44C247.216 180.833 247.535 181.152 247.928 181.152H255.992C256.386 181.152 256.704 180.833 256.704 180.44C256.704 180.047 256.386 179.728 255.992 179.728Z" fill="white"/>
<path d="M249.146 176.396H247.849C247.456 176.396 247.137 176.714 247.137 177.108C247.137 177.501 247.456 177.819 247.849 177.819H249.146C249.54 177.819 249.859 177.501 249.859 177.108C249.859 176.714 249.54 176.396 249.146 176.396Z" fill="white"/>
<path d="M263.986 176.396H262.688C262.295 176.396 261.976 176.714 261.976 177.108C261.976 177.501 262.295 177.819 262.688 177.819H263.986C264.379 177.819 264.698 177.501 264.698 177.108C264.698 176.714 264.379 176.396 263.986 176.396Z" fill="white"/>
<path d="M268.19 176.396H266.892C266.499 176.396 266.18 176.714 266.18 177.108C266.18 177.501 266.499 177.819 266.892 177.819H268.19C268.583 177.819 268.902 177.501 268.902 177.108C268.902 176.714 268.583 176.396 268.19 176.396Z" fill="white"/>
<path d="M259.95 176.514H251.886C251.492 176.514 251.173 176.833 251.173 177.226C251.173 177.619 251.492 177.938 251.886 177.938H259.95C260.343 177.938 260.662 177.619 260.662 177.226C260.662 176.833 260.343 176.514 259.95 176.514Z" fill="white"/>
<path d="M230.377 223.703L224.286 214.079L243.405 198.844L251.296 190.105C252.321 188.969 253.627 188.123 255.082 187.65C256.537 187.177 258.09 187.094 259.588 187.409C261.085 187.724 262.473 188.427 263.614 189.446C264.754 190.466 265.607 191.767 266.087 193.219C266.798 195.371 266.646 197.715 265.661 199.757C264.676 201.798 262.936 203.377 260.808 204.161L248.33 208.756L230.377 223.703Z" fill="#FFB6B6"/>
<path d="M87.4619 153.921V200.697H120.245V153.921C120.245 153.584 120.138 153.257 119.938 152.986C119.739 152.715 119.458 152.515 119.136 152.416C118.984 152.366 118.826 152.341 118.666 152.343H89.0452C88.8375 152.342 88.6318 152.383 88.4398 152.462C88.2479 152.541 88.0734 152.657 87.9264 152.804C87.7793 152.95 87.6626 153.125 87.5829 153.316C87.5032 153.508 87.4621 153.713 87.4619 153.921ZM100.256 169.993C100.264 169.071 100.637 168.19 101.292 167.541C101.947 166.892 102.833 166.528 103.755 166.528C104.678 166.528 105.563 166.892 106.218 167.541C106.874 168.19 107.246 169.071 107.255 169.993V175.421C107.25 176.346 106.879 177.231 106.223 177.883C105.568 178.535 104.68 178.901 103.755 178.901C102.83 178.901 101.943 178.535 101.287 177.883C100.631 177.231 100.26 176.346 100.256 175.421V169.993Z" fill="#2F2E41"/>
<path d="M87.3613 199.202V203.712C87.3621 203.946 87.4549 204.17 87.6198 204.336C87.7846 204.501 88.0082 204.595 88.2419 204.597H119.464C119.698 204.596 119.922 204.502 120.087 204.336C120.252 204.171 120.345 203.946 120.345 203.712V199.202H87.3613Z" fill="#3F3D56"/>
<path d="M35.8901 83.4464V168.853C35.891 169.942 36.3239 170.985 37.0938 171.755C37.8637 172.525 38.9077 172.957 39.9965 172.958H166.611C167.699 172.957 168.743 172.525 169.513 171.755C170.283 170.985 170.716 169.942 170.717 168.853V83.4464C170.714 82.359 170.281 81.3169 169.511 80.5484C168.741 79.7799 167.699 79.3476 166.611 79.3462H39.9965C38.9087 79.3476 37.8657 79.7799 37.096 80.5484C36.3263 81.3169 35.8927 82.359 35.8901 83.4464Z" fill="#3F3D56"/>
<path d="M38.8604 84.5089V167.8C38.8614 168.381 39.0929 168.939 39.5042 169.35C39.9156 169.761 40.4732 169.992 41.055 169.993H165.557C166.138 169.993 166.696 169.761 167.107 169.35C167.519 168.939 167.75 168.381 167.751 167.8V84.5089C167.751 83.9267 167.52 83.3682 167.109 82.9561C166.697 82.544 166.139 82.3118 165.557 82.3105H41.055C40.4725 82.3118 39.9144 82.544 39.5029 82.9561C39.0915 83.3682 38.8604 83.9267 38.8604 84.5089Z" fill="white"/>
<path d="M61.9656 204.291C62.0923 204.45 62.2534 204.578 62.4368 204.666C62.6201 204.753 62.8209 204.798 63.0242 204.797H137.095C137.297 204.797 137.497 204.752 137.68 204.665C137.863 204.577 138.024 204.451 138.151 204.293C138.279 204.136 138.37 203.952 138.418 203.755C138.465 203.559 138.468 203.354 138.427 203.156L137.277 197.696C137.229 197.474 137.127 197.266 136.979 197.093C136.83 196.921 136.641 196.788 136.428 196.706C136.274 196.646 136.11 196.615 135.945 196.615H64.1694C64.0039 196.615 63.8398 196.646 63.6858 196.706C63.4729 196.788 63.2838 196.921 63.1356 197.093C62.9874 197.266 62.8847 197.473 62.8371 197.696L61.6873 203.156C61.6464 203.354 61.6502 203.558 61.6983 203.755C61.7464 203.951 61.8378 204.134 61.9656 204.291Z" fill="#2F2E41"/>
<path d="M161.516 93.7841H45.0205C44.8994 93.7814 44.7842 93.7314 44.6995 93.6449C44.6148 93.5583 44.5674 93.4421 44.5674 93.321C44.5674 93.1999 44.6148 93.0837 44.6995 92.9971C44.7842 92.9106 44.8994 92.8606 45.0205 92.8579H161.516C161.637 92.8606 161.752 92.9106 161.837 92.9971C161.922 93.0837 161.969 93.1999 161.969 93.321C161.969 93.4421 161.922 93.5583 161.837 93.6449C161.752 93.7314 161.637 93.7814 161.516 93.7841Z" fill="#3F3D56"/>
<path d="M52.9503 90.4936C54.4498 90.4936 55.6653 89.2515 55.6653 87.7192C55.6653 86.187 54.4498 84.9448 52.9503 84.9448C51.4509 84.9448 50.2354 86.187 50.2354 87.7192C50.2354 89.2515 51.4509 90.4936 52.9503 90.4936Z" fill="#3F3D56"/>
<path d="M62.3292 90.4936C63.8287 90.4936 65.0442 89.2515 65.0442 87.7192C65.0442 86.187 63.8287 84.9448 62.3292 84.9448C60.8298 84.9448 59.6143 86.187 59.6143 87.7192C59.6143 89.2515 60.8298 90.4936 62.3292 90.4936Z" fill="#3F3D56"/>
<path d="M71.7086 90.4936C73.2081 90.4936 74.4236 89.2515 74.4236 87.7192C74.4236 86.187 73.2081 84.9448 71.7086 84.9448C70.2092 84.9448 68.9937 86.187 68.9937 87.7192C68.9937 89.2515 70.2092 90.4936 71.7086 90.4936Z" fill="#3F3D56"/>
<path d="M155.868 85.6309H149.207C149.075 85.6339 148.95 85.6884 148.858 85.7825C148.766 85.8767 148.714 86.0032 148.714 86.1348C148.714 86.2665 148.766 86.3929 148.858 86.4871C148.95 86.5813 149.075 86.6357 149.207 86.6388H155.868C156.001 86.6369 156.127 86.583 156.22 86.4887C156.313 86.3944 156.366 86.2673 156.366 86.1348C156.366 86.0024 156.313 85.8753 156.22 85.781C156.127 85.6866 156.001 85.6327 155.868 85.6309Z" fill="#3F3D56"/>
<path d="M155.869 87.5239H149.207C149.075 87.5268 148.95 87.5812 148.858 87.6754C148.765 87.7696 148.714 87.8961 148.714 88.0279C148.714 88.1597 148.765 88.2862 148.858 88.3804C148.95 88.4746 149.075 88.529 149.207 88.5319H155.869C156.001 88.5303 156.128 88.4765 156.221 88.3821C156.314 88.2878 156.367 88.1605 156.367 88.0279C156.367 87.8953 156.314 87.768 156.221 87.6737C156.128 87.5793 156.001 87.5255 155.869 87.5239Z" fill="#3F3D56"/>
<path d="M155.868 89.4165H149.207C149.075 89.4196 148.95 89.474 148.858 89.5682C148.766 89.6624 148.714 89.7888 148.714 89.9205C148.714 90.0522 148.766 90.1786 148.858 90.2728C148.95 90.3669 149.075 90.4214 149.207 90.4245H155.868C156.001 90.4226 156.127 90.3687 156.22 90.2744C156.313 90.18 156.366 90.0529 156.366 89.9205C156.366 89.788 156.313 89.6609 156.22 89.5666C156.127 89.4723 156.001 89.4184 155.868 89.4165Z" fill="#3F3D56"/>
<path d="M316.465 201.181C316.666 201.766 317.047 202.273 317.554 202.628C318.061 202.982 318.667 203.168 319.286 203.157L331.373 202.846C331.997 202.833 332.599 202.62 333.091 202.237C333.583 201.854 333.938 201.323 334.102 200.722L335.813 182.438C336.419 182.713 337.08 182.849 337.746 182.835C338.325 182.821 338.895 182.693 339.424 182.458C339.953 182.223 340.431 181.886 340.83 181.467C341.229 181.048 341.541 180.554 341.749 180.014C341.957 179.474 342.057 178.898 342.042 178.32C342.028 177.741 341.899 177.171 341.665 176.643C341.43 176.114 341.093 175.636 340.673 175.237C340.254 174.839 339.76 174.526 339.22 174.318C338.68 174.11 338.104 174.011 337.525 174.025C337.259 174.025 336.993 174.052 336.733 174.108C336.45 173.802 336.106 173.558 335.723 173.393C335.34 173.228 334.926 173.144 334.509 173.149L315.916 173.629C315.762 173.634 315.608 173.653 315.457 173.685C315.049 173.761 314.663 173.924 314.323 174.162C313.983 174.4 313.699 174.708 313.488 175.065C313.277 175.422 313.146 175.82 313.102 176.232C313.058 176.645 313.103 177.061 313.234 177.455L316.465 201.181ZM336.163 181.197L337.381 176.84C337.519 176.337 337.522 175.806 337.39 175.301C337.449 175.301 337.501 175.273 337.56 175.273C338.395 175.255 339.202 175.57 339.805 176.147C340.408 176.723 340.758 177.516 340.777 178.35C340.797 179.184 340.485 179.992 339.909 180.596C339.334 181.201 338.542 181.553 337.708 181.574C337.168 181.591 336.634 181.461 336.163 181.197Z" fill="#2F2E41"/>
<path d="M315.458 173.685C315.854 175.95 320.307 177.541 325.662 177.265C330.587 177.038 334.613 175.309 335.351 173.261C335.078 173.18 334.794 173.142 334.509 173.149L315.916 173.629C315.762 173.634 315.608 173.653 315.458 173.685Z" fill="#3F3D56"/>
<path d="M326.644 191.134C326.668 191.128 326.691 191.118 326.712 191.104L329.337 189.386C329.369 189.366 329.395 189.337 329.413 189.304C329.431 189.271 329.441 189.233 329.441 189.196C329.441 189.158 329.431 189.12 329.413 189.087C329.395 189.054 329.369 189.026 329.338 189.005L326.609 187.219C326.584 187.202 326.556 187.19 326.527 187.185C326.497 187.179 326.467 187.179 326.437 187.185C326.408 187.191 326.38 187.203 326.355 187.22C326.33 187.237 326.309 187.259 326.293 187.284C326.276 187.309 326.265 187.337 326.259 187.366C326.254 187.396 326.254 187.426 326.26 187.455C326.266 187.485 326.278 187.513 326.295 187.537C326.312 187.562 326.334 187.583 326.359 187.6L328.796 189.195L326.463 190.722C326.418 190.752 326.384 190.796 326.369 190.848C326.354 190.9 326.357 190.955 326.379 191.005C326.4 191.054 326.439 191.094 326.487 191.118C326.536 191.142 326.591 191.147 326.644 191.134H326.644Z" fill="#6C63FF"/>
<path d="M322.498 191.325C322.542 191.314 322.581 191.29 322.612 191.256C322.642 191.222 322.661 191.18 322.668 191.135C322.674 191.09 322.666 191.044 322.646 191.004C322.626 190.963 322.595 190.929 322.555 190.906L320.136 189.52L322.474 187.783C322.498 187.766 322.518 187.743 322.534 187.717C322.549 187.692 322.559 187.663 322.564 187.634C322.568 187.604 322.567 187.574 322.559 187.545C322.552 187.516 322.539 187.489 322.521 187.465C322.503 187.44 322.481 187.42 322.455 187.405C322.43 187.39 322.401 187.379 322.371 187.375C322.342 187.371 322.312 187.372 322.283 187.379C322.254 187.387 322.226 187.4 322.202 187.418L319.584 189.362C319.553 189.384 319.529 189.414 319.513 189.448C319.497 189.483 319.49 189.52 319.492 189.558C319.494 189.596 319.506 189.633 319.526 189.665C319.546 189.697 319.573 189.724 319.606 189.742L322.328 191.302C322.379 191.332 322.44 191.34 322.498 191.325Z" fill="#6C63FF"/>
<path d="M326.383 192.639C326.405 192.634 326.426 192.625 326.445 192.613C326.471 192.598 326.493 192.577 326.511 192.553C326.528 192.529 326.541 192.501 326.548 192.472C326.555 192.443 326.557 192.413 326.552 192.383C326.547 192.354 326.537 192.325 326.522 192.3L322.8 186.184C322.769 186.133 322.718 186.096 322.659 186.082C322.601 186.067 322.539 186.077 322.487 186.109C322.435 186.14 322.398 186.191 322.384 186.249C322.37 186.308 322.379 186.37 322.411 186.422L326.132 192.537C326.157 192.579 326.195 192.611 326.24 192.63C326.285 192.648 326.335 192.651 326.383 192.639Z" fill="#6C63FF"/>
<path d="M117.187 118.96H97.0245C96.202 118.96 95.5352 119.627 95.5352 120.449V122.418C95.5352 123.24 96.202 123.907 97.0245 123.907H117.187C118.01 123.907 118.677 123.24 118.677 122.418V120.449C118.677 119.627 118.01 118.96 117.187 118.96Z" fill="#6C63FF"/>
<path d="M128.94 128.854H85.2721C84.4495 128.854 83.7827 129.52 83.7827 130.342V132.311C83.7827 133.134 84.4495 133.8 85.2721 133.8H128.94C129.763 133.8 130.43 133.134 130.43 132.311V130.342C130.43 129.52 129.763 128.854 128.94 128.854Z" fill="#E6E6E6"/>
<path d="M128.94 138.747H85.2721C84.4495 138.747 83.7827 139.413 83.7827 140.235V142.204C83.7827 143.027 84.4495 143.693 85.2721 143.693H128.94C129.763 143.693 130.43 143.027 130.43 142.204V140.235C130.43 139.413 129.763 138.747 128.94 138.747Z" fill="#E6E6E6"/>
<path d="M132.642 171.875L132.741 172.187L132.746 172.197L135.723 181.245L139.148 191.672L145.592 211.266L145.654 214.31V214.32L146.133 238.805L144.806 242.124L146.3 247.567C146.3 247.567 145.613 239.34 141.928 244.064C139.841 246.749 137.399 249.496 135.395 252.072C138.315 253.253 141.282 254.321 144.296 255.277C144.947 255.485 145.602 255.683 146.258 255.88C146.399 255.922 146.539 255.963 146.68 256.005C156.67 258.958 166.997 260.618 177.41 260.943C177.951 260.958 178.482 260.969 178.997 260.979C179.18 260.984 179.356 260.989 179.533 260.989C180.116 260.995 180.694 261 181.277 261C182.453 261 183.625 260.983 184.79 260.948C193.42 260.705 201.999 259.545 210.383 257.488C210.326 254.028 210.17 249.985 209.946 245.667C209.842 243.549 207.505 241.255 207.364 239.038C207.265 237.373 209.363 235.807 209.254 234.116C208.546 223.705 207.661 227.702 207.005 220.329C206.937 219.606 206.875 218.914 206.818 218.253C206.396 213.519 206.105 210.558 206.105 210.558L208.905 192.915L213.303 165.215L212.965 164.658L212.585 164.471L189.386 152.993L188.127 149.768C187.76 148.838 187.123 148.04 186.298 147.475C185.474 146.911 184.499 146.606 183.5 146.599L168.218 146.537C167.425 146.533 166.642 146.719 165.935 147.078C165.228 147.437 164.617 147.96 164.153 148.602L160.015 154.331L132.642 171.875Z" fill="#3F3D56"/>
<path d="M149.116 206.906L145.654 214.31L143.291 219.367L139.226 240.642L137.191 242.801L135.447 235.157L117.198 239.208C116.599 235.883 117.038 239.32 116.668 235.673C116.772 235.569 116.881 235.465 116.991 235.361C117.282 235.09 117.527 234.835 117.522 234.591C117.313 222.01 117.938 200.6 123.153 187.629C123.97 185.511 125.047 183.503 126.36 181.651C126.464 181.511 126.563 181.37 126.661 181.23C129.066 177.863 130.586 174.549 132.741 172.192V172.187C132.754 172.176 132.766 172.164 132.777 172.151C132.785 172.147 132.792 172.141 132.798 172.135L147.601 164.289L148.236 182.125L148.689 194.945L149.116 206.906Z" fill="#3F3D56"/>
<path d="M202.492 209.009L206.816 218.256L208.325 221.476L212.389 242.749L214.417 244.903L216.165 237.261L216.986 237.093L231.796 234.027L236.112 247.73C237.085 246.11 237.469 244.204 237.197 242.333C236.926 240.463 236.017 238.744 234.624 237.466C234.33 237.199 234.084 236.94 234.091 236.694C234.337 221.897 233.431 194.878 225.254 183.758C222.657 180.229 221.099 176.714 218.832 174.258C218.825 174.251 218.825 174.244 218.818 174.244L213.301 165.214L212.964 164.66L212.585 164.471L202.492 209.009Z" fill="#3F3D56"/>
<path d="M176.3 142.189C187.528 142.189 196.631 133.091 196.631 121.867C196.631 110.643 187.528 101.544 176.3 101.544C165.072 101.544 155.97 110.643 155.97 121.867C155.97 133.091 165.072 142.189 176.3 142.189Z" fill="#FFB6B6"/>
<path d="M203.779 107.672C203.621 107.504 203.431 107.369 203.221 107.276C203.01 107.182 202.782 107.133 202.552 107.129L202.857 106.281C202.957 106.014 202.984 105.725 202.935 105.444C202.887 105.163 202.764 104.9 202.58 104.682C202.396 104.464 202.158 104.298 201.889 104.203C201.62 104.107 201.331 104.084 201.05 104.137L199.937 104.352L200.042 103.608C200.082 103.331 200.05 103.049 199.948 102.788C199.846 102.528 199.677 102.298 199.46 102.123C199.242 101.947 198.982 101.831 198.706 101.786C198.43 101.741 198.146 101.768 197.884 101.866C197.645 101.96 197.389 101.999 197.133 101.981C196.877 101.963 196.629 101.888 196.406 101.761C196.182 101.638 195.987 101.468 195.836 101.263C195.685 101.057 195.58 100.821 195.53 100.571L195.142 98.7008L195.101 98.6004C193.212 95.4534 189.58 93.1639 185.136 92.3247C181.18 91.5721 177.124 91.9552 173.214 92.3155C171.662 92.4615 169.91 92.6257 168.45 93.5196C167.209 94.2858 166.16 95.8183 166.374 97.3644C162.519 96.1832 158.385 98.5411 156.336 101.515C153.909 105.054 153.512 109.487 153.448 112.954C153.275 121.154 154.967 127.863 158.467 132.898C158.723 133.263 158.786 134.025 159.293 134.28L159.188 134.111C159.754 134.394 160.329 134.85 160.114 135.338C159.498 136.743 163.591 139.849 166.475 140.875C171.735 142.75 178.73 142.59 183.648 141.915L183.822 140.752C185.597 140.51 186.847 140.05 187.198 139.329C187.819 138.8 188.348 138.326 188.809 137.888L188.813 137.883C188.823 137.874 188.841 137.861 188.85 137.851C191.072 135.721 191.587 134.508 191.82 132.661C192.044 130.85 191.647 129.012 191.241 127.357C199.791 128.679 187.873 118.253 195.84 116.237C195.931 116.209 196.024 116.186 196.118 116.169C196.351 116.114 196.584 116.06 196.807 115.996C197.885 115.703 198.917 115.263 199.873 114.687C202.1 113.332 202.834 111.535 203.984 109.51C204.15 109.222 204.22 108.888 204.183 108.557C204.146 108.227 204.004 107.917 203.779 107.672Z" fill="#2F2E41"/>
<path d="M248.206 210.456C248.201 211.254 248.192 212.371 248.156 213.753C248.151 213.945 248.146 214.141 248.142 214.342C248.083 216.882 248.023 219.012 247.927 221.379C247.923 221.543 247.918 221.703 247.909 221.867C247.781 225.169 247.581 229.014 247.234 235.103C246.591 246.35 245.468 236.649 244.341 240.594C244.286 240.79 244.227 241.023 244.172 241.297C244.002 242.289 243.714 243.259 243.315 244.184C242.717 244.539 242.101 244.881 241.494 245.224C239.765 246.186 238.008 247.112 236.238 247.992C235.243 248.485 234.244 248.968 233.24 249.433C233.081 249.506 232.925 249.579 232.77 249.648C227.63 252.024 222.333 254.045 216.915 255.695C215.856 256.015 214.803 256.325 213.735 256.612C212.622 256.922 211.508 257.214 210.381 257.488C201.997 259.545 193.419 260.706 184.789 260.949C183.626 260.986 182.453 261 181.276 261C180.692 261 180.117 260.995 179.533 260.991C179.355 260.991 179.177 260.986 178.999 260.981C178.484 260.968 177.95 260.959 177.411 260.945C166.999 260.62 156.671 258.96 146.682 256.005L146.258 255.882C145.601 255.682 144.948 255.486 144.296 255.276C141.284 254.322 138.317 253.255 135.394 252.074C133.163 251.175 130.957 250.212 128.778 249.182C128.758 249.177 128.739 249.168 128.723 249.155C128.267 248.945 127.806 248.726 127.35 248.503C127.291 248.471 127.227 248.439 127.163 248.407C125.461 247.577 123.777 246.707 122.112 245.798C120.711 242.583 118.74 241.967 117.517 239.139C117.161 238.299 116.904 237.421 116.751 236.521C116.751 236.512 116.746 236.503 116.746 236.489C116.874 238.186 116.203 233.479 116.742 236.471C116.737 236.416 116.732 236.357 116.728 236.289C116.714 236.125 116.696 235.924 116.669 235.673C115.104 220.399 115.204 202.93 114.524 188.536C114.479 187.606 114.431 186.715 114.383 185.864C114.369 185.581 114.351 185.303 114.333 185.029C114.364 184.947 114.401 184.86 114.442 184.778C114.451 184.754 114.461 184.732 114.474 184.71C114.487 184.681 114.503 184.654 114.52 184.628C114.529 184.614 114.542 184.596 114.552 184.582C114.558 184.566 114.566 184.551 114.574 184.536C114.615 184.473 114.661 184.404 114.711 184.34C114.734 184.313 114.752 184.29 114.775 184.267C114.791 184.244 114.809 184.223 114.83 184.203C114.844 184.182 114.861 184.162 114.88 184.144C114.898 184.126 114.917 184.103 114.939 184.08C114.949 184.066 114.961 184.054 114.976 184.044C115.012 184.002 115.052 183.964 115.094 183.93C115.257 183.78 115.431 183.643 115.615 183.519C115.678 183.478 115.747 183.437 115.811 183.392C116.271 183.117 116.755 182.885 117.257 182.698C117.431 182.635 117.604 182.575 117.791 182.511C117.859 182.493 117.923 182.47 117.992 182.448C118.092 182.416 118.193 182.384 118.297 182.361C118.818 182.206 119.379 182.074 119.986 181.95C120.059 181.937 120.136 181.923 120.214 181.905C120.323 181.882 120.437 181.864 120.551 181.846C120.707 181.818 120.866 181.791 121.026 181.763C122.381 181.549 123.919 181.389 125.616 181.285C125.776 181.275 125.935 181.266 126.095 181.257C126.282 181.248 126.469 181.239 126.661 181.23C126.821 181.221 126.985 181.216 127.149 181.212C127.309 181.202 127.473 181.198 127.642 181.193C128.103 181.18 128.577 181.166 129.061 181.157C130.439 181.129 131.89 181.139 133.414 181.171C134.121 181.189 134.842 181.207 135.581 181.239C135.631 181.239 135.677 181.243 135.722 181.243C136.366 181.266 137.014 181.294 137.68 181.33C138.145 181.353 138.615 181.376 139.085 181.403C139.528 181.43 139.975 181.458 140.426 181.49C140.778 181.508 141.129 181.535 141.485 181.558C141.786 181.581 142.087 181.604 142.388 181.622L142.799 181.649C143.023 181.668 143.246 181.681 143.474 181.704C143.976 181.745 144.478 181.786 144.989 181.827C145.496 181.873 146.011 181.918 146.527 181.964C147.042 182.01 147.562 182.06 148.083 182.11C148.137 182.115 148.188 182.119 148.238 182.124C148.712 182.174 149.187 182.22 149.666 182.27C149.775 182.279 149.889 182.288 149.999 182.302C150.456 182.347 150.921 182.401 151.382 182.45C151.524 182.465 151.664 182.48 151.806 182.496C152.167 182.535 152.523 182.569 152.887 182.612C153.366 182.666 153.854 182.717 154.329 182.78C154.698 182.822 155.068 182.863 155.438 182.908C156.017 182.977 156.606 183.05 157.194 183.127C157.418 183.154 157.641 183.182 157.865 183.214C159.544 183.424 161.241 183.656 162.966 183.898C165.58 184.267 168.236 184.669 170.91 185.102C173.588 185.535 176.281 185.993 178.99 186.475C179.674 186.598 180.359 186.721 181.048 186.849C181.358 186.908 181.668 186.967 181.979 187.027C182.508 187.122 183.037 187.223 183.566 187.323C184.096 187.423 184.625 187.524 185.154 187.629C185.784 187.752 186.418 187.875 187.048 187.998C191.195 188.819 195.32 189.695 199.344 190.612C200.006 190.762 200.667 190.917 201.324 191.068C202.638 191.373 203.94 191.683 205.23 191.998C205.586 192.08 205.937 192.167 206.289 192.253C207.165 192.472 208.041 192.691 208.903 192.915L209.054 192.956C209.688 193.111 210.308 193.271 210.929 193.435C212.393 193.818 213.834 194.205 215.25 194.598C216.19 194.858 217.119 195.121 218.037 195.387C219.411 195.784 220.757 196.185 222.066 196.591C222.39 196.691 222.714 196.791 223.034 196.887C223.992 197.184 224.936 197.485 225.853 197.786C226.583 198.023 227.295 198.265 227.998 198.506C228.7 198.748 229.389 198.99 230.065 199.232C230.498 199.387 230.927 199.551 231.356 199.706C231.972 199.934 232.579 200.162 233.172 200.39C233.354 200.458 233.532 200.531 233.71 200.6C233.824 200.65 233.934 200.691 234.043 200.737C234.258 200.823 234.477 200.905 234.687 200.992C234.901 201.074 235.111 201.161 235.321 201.252C235.526 201.334 235.736 201.421 235.937 201.507C236.142 201.59 236.343 201.676 236.544 201.767C236.712 201.836 236.877 201.909 237.036 201.982C237.36 202.123 237.684 202.265 237.999 202.411C238.154 202.483 238.309 202.552 238.464 202.625L238.82 202.789C238.871 202.816 238.921 202.839 238.971 202.862C239.085 202.917 239.204 202.976 239.318 203.031C239.582 203.154 239.842 203.286 240.098 203.409C240.44 203.583 240.773 203.756 241.093 203.925C241.417 204.098 241.731 204.271 242.032 204.44C242.083 204.467 242.128 204.495 242.178 204.522C242.247 204.559 242.315 204.6 242.384 204.636C242.617 204.769 242.84 204.905 243.064 205.038C243.502 205.307 243.917 205.571 244.305 205.836C244.391 205.895 244.473 205.954 244.56 206.009C244.848 206.214 245.121 206.415 245.377 206.62C245.377 206.625 245.377 206.625 245.381 206.625C245.468 206.689 245.55 206.757 245.632 206.821C245.701 206.885 245.774 206.939 245.842 207.003C246.08 207.209 246.299 207.405 246.499 207.605C246.567 207.667 246.631 207.733 246.691 207.801C246.718 207.823 246.742 207.848 246.764 207.874C246.855 207.966 246.937 208.057 247.015 208.148C247.027 208.161 247.038 208.174 247.047 208.189C247.156 208.317 247.257 208.445 247.353 208.572C247.398 208.636 247.448 208.7 247.489 208.764C247.544 208.841 247.599 208.923 247.645 209.001C247.686 209.065 247.722 209.133 247.759 209.197C247.855 209.361 247.938 209.534 248.005 209.712C248.056 209.834 248.097 209.959 248.128 210.086C248.163 210.208 248.189 210.331 248.206 210.456Z" fill="#2F2E41"/>
<path opacity="0.2" d="M248.206 210.456C248.201 211.254 248.192 212.371 248.155 213.753C248.151 213.945 248.142 214.141 248.137 214.342C248.091 216.28 248.023 218.675 247.927 221.379C247.923 221.543 247.918 221.703 247.909 221.867C247.781 225.169 247.58 229.014 247.234 235.103C246.59 246.35 245.468 236.649 244.341 240.594C241.211 238.669 237.78 236.654 234.111 234.583C233.45 234.209 232.782 233.833 232.108 233.456C224.772 229.365 216.577 225.078 208.022 220.832C207.684 220.663 207.342 220.494 207.005 220.33C187.408 210.647 166.018 201.229 148.689 194.944C145.345 193.731 142.151 192.636 139.149 191.674C132.825 189.654 127.359 188.24 123.152 187.629C118.772 186.99 115.747 187.218 114.524 188.536C114.478 187.606 114.431 186.715 114.382 185.864C114.364 185.581 114.346 185.303 114.328 185.029C114.356 184.954 114.392 184.882 114.428 184.81C114.433 184.799 114.436 184.788 114.442 184.778C114.45 184.754 114.461 184.732 114.474 184.71C114.487 184.681 114.502 184.654 114.519 184.628C114.534 184.595 114.552 184.565 114.574 184.536C114.615 184.472 114.661 184.404 114.711 184.34C114.748 184.292 114.787 184.247 114.83 184.203C114.844 184.181 114.86 184.161 114.88 184.144C114.898 184.126 114.916 184.103 114.939 184.08C114.949 184.066 114.961 184.054 114.976 184.044C115.012 184.002 115.051 183.964 115.094 183.93C115.257 183.78 115.431 183.643 115.614 183.519C115.678 183.478 115.747 183.437 115.811 183.392C116.27 183.117 116.754 182.885 117.257 182.698C117.43 182.634 117.604 182.575 117.791 182.511C117.859 182.493 117.923 182.47 117.991 182.447C118.092 182.416 118.192 182.384 118.297 182.361C118.817 182.206 119.379 182.073 119.985 181.95C120.168 181.914 120.359 181.877 120.551 181.845C120.706 181.818 120.866 181.791 121.026 181.763C122.381 181.549 123.918 181.389 125.616 181.284C125.775 181.275 125.935 181.266 126.095 181.257C126.282 181.248 126.469 181.239 126.661 181.23C126.82 181.221 126.984 181.216 127.149 181.211C127.308 181.202 127.473 181.198 127.642 181.193C128.102 181.18 128.577 181.166 129.061 181.157C130.438 181.134 131.889 181.143 133.413 181.175C134.121 181.189 134.841 181.211 135.581 181.243C135.626 181.243 135.676 181.248 135.722 181.248C136.365 181.266 137.018 181.298 137.679 181.33C138.145 181.353 138.615 181.376 139.085 181.403C139.527 181.43 139.974 181.458 140.426 181.49C140.777 181.508 141.129 181.535 141.485 181.558C141.786 181.581 142.087 181.604 142.388 181.622C142.748 181.649 143.109 181.677 143.474 181.704C143.976 181.745 144.478 181.786 144.989 181.827C145.495 181.873 146.011 181.918 146.526 181.964C147.042 182.01 147.562 182.06 148.082 182.11C148.137 182.114 148.187 182.119 148.237 182.124C148.712 182.174 149.186 182.219 149.666 182.27C152.321 182.539 155.054 182.853 157.865 183.214C159.544 183.428 161.244 183.658 162.966 183.902C165.58 184.272 168.236 184.673 170.909 185.102C173.588 185.535 176.281 185.993 178.99 186.475C179.674 186.598 180.359 186.721 181.048 186.849C181.887 187.004 182.727 187.162 183.566 187.323C184.095 187.423 184.625 187.524 185.154 187.629C185.784 187.752 186.418 187.875 187.047 187.998C191.195 188.819 195.32 189.695 199.344 190.611C200.005 190.762 200.667 190.917 201.324 191.067C202.638 191.373 203.94 191.683 205.23 191.998C205.586 192.085 205.937 192.171 206.288 192.258C207.169 192.477 208.04 192.696 208.903 192.915V192.919C208.953 192.928 209.003 192.942 209.053 192.956C209.683 193.115 210.308 193.275 210.928 193.439C212.393 193.822 213.833 194.208 215.249 194.598C216.189 194.862 217.12 195.122 218.037 195.387C219.41 195.788 220.756 196.189 222.066 196.591C222.39 196.691 222.714 196.791 223.033 196.887C223.991 197.188 224.931 197.488 225.853 197.786C226.583 198.023 227.295 198.265 227.997 198.506C228.7 198.748 229.389 198.99 230.064 199.231C230.502 199.387 230.931 199.546 231.356 199.701C231.976 199.929 232.578 200.157 233.171 200.39C233.354 200.458 233.532 200.531 233.71 200.6C234.043 200.727 234.367 200.86 234.686 200.992C234.901 201.074 235.111 201.161 235.321 201.252C235.526 201.334 235.736 201.421 235.936 201.507C236.142 201.589 236.343 201.676 236.543 201.767C236.712 201.836 236.876 201.909 237.036 201.982C237.36 202.123 237.684 202.264 237.999 202.41C238.154 202.483 238.309 202.552 238.464 202.625L238.82 202.789C238.87 202.816 238.92 202.839 238.971 202.862C239.358 203.044 239.733 203.227 240.098 203.409C240.44 203.583 240.773 203.756 241.092 203.925C241.471 204.125 241.831 204.321 242.178 204.522C242.247 204.559 242.315 204.6 242.384 204.636C242.616 204.768 242.84 204.905 243.063 205.037C243.501 205.307 243.917 205.571 244.304 205.836C244.688 206.1 245.044 206.36 245.377 206.62C245.377 206.625 245.377 206.625 245.381 206.625C245.541 206.752 245.696 206.88 245.842 207.003C246.079 207.208 246.298 207.405 246.499 207.605C246.566 207.667 246.63 207.733 246.691 207.801C246.717 207.823 246.742 207.848 246.764 207.874C246.86 207.979 246.955 208.084 247.047 208.189C247.156 208.317 247.256 208.444 247.352 208.572C247.398 208.636 247.448 208.7 247.489 208.764C247.544 208.841 247.599 208.923 247.644 209.001C247.685 209.065 247.722 209.133 247.758 209.197C247.855 209.361 247.938 209.534 248.005 209.712C248.055 209.834 248.096 209.959 248.128 210.086C248.163 210.208 248.188 210.331 248.206 210.456Z" fill="black"/>
</g>
<defs>
<clipPath id="clip0_614_403">
<rect width="359" height="261" fill="white"/>
</clipPath>
</defs>
</svg>
